<svg width="1125.000000" height="858.000000" viewBox="0 0 1125 858" fill="none" xmlns="http://www.w3.org/2000/svg" xmlns:xlink="http://www.w3.org/1999/xlink">
	<defs/>
	<path id="path" d="M558.38 56.73C557.07 56.71 555.9 56.41 555.5 56.28C554.62 56.01 553.79 55.63 552.89 55.23C550.92 54.34 549.86 53.53 548.92 52.82C547.9 52.04 547.01 51.36 545.25 50.82C544.26 50.52 542.49 49.98 540.23 50.17C538.71 50.3 537.92 50.66 537.15 51.02C536.45 51.34 535.79 51.64 534.68 51.68C532.85 51.75 531.82 51.03 530.83 50.32C529.88 49.65 528.99 49.02 527.43 49.04C526.15 49.05 525.45 49.48 524.49 50.07C523.49 50.68 522.24 51.44 519.87 52.02C518.72 52.3 517.29 52.65 515.45 52.54C513.46 52.42 512.35 51.83 511.28 51.26C510.32 50.75 509.32 50.23 507.66 50.03C506.26 49.86 505.5 50.05 504.63 50.28C503.78 50.49 502.82 50.74 501.1 50.68C500.22 50.65 497.12 50.45 494.31 49.02C490.73 47.2 486.61 42.73 487.03 37.09C487.06 36.57 487.5 31.83 491.6 28.75C492.44 28.12 495.84 25.56 500.38 26.16C502.08 26.39 503.39 26.99 504.22 27.45C504.41 26.04 505.27 20.96 509.66 17.39C512.54 15.05 515.5 14.52 516.09 14.42C520.31 13.72 523.6 15.28 524.72 15.86C525.18 13.87 526.25 10.5 528.94 7.34C534.2 1.12 543.23 -1.43 551.08 0.78C552.79 1.26 560.17 3.58 563.73 10.8C565.07 13.51 565.44 16.05 565.54 17.72C566.02 17.03 566.81 16.1 568.02 15.41C571.95 13.16 577.39 15.11 580.54 17.88C583.49 20.47 586.14 25.26 584.83 28.77C584.27 30.27 583.03 31.37 583.51 32.23C583.96 33.04 585.46 32.76 587.2 32.89C590.27 33.13 593.34 34.61 595.06 36.38C597.63 39.02 598.78 43.79 596.76 47C593.55 52.09 583.96 51.47 581.1 51.16C579.49 50.98 578.35 50.69 577.44 50.46C576.03 50.09 575.02 49.83 573.28 50.21C571.89 50.52 571.15 50.99 569.93 51.77C569.44 52.09 568.87 52.45 568.15 52.87C566.7 53.73 565.52 54.32 564.71 54.7C561.78 56.07 560.31 56.76 558.38 56.73Z" fill="#FFFFFF" fill-opacity="1.000000" fill-rule="nonzero"/>
	<path id="path" d="M588.45 30.74C586.38 30.38 583.94 30.83 583.51 30.91C581.76 31.23 580.36 31.77 579.39 32.23C579.7 31.85 581.76 29.33 581.2 25.8C580.65 22.32 578 20.56 577.41 20.19C574.74 18.53 572 18.98 570.65 19.2C566.71 19.85 564.25 22.36 563.4 23.33C563.11 22.27 562.58 20.81 561.52 19.36C556.63 12.62 545.49 12.79 539.3 14.25C527.76 16.97 522.08 26.86 520.96 28.91C520.04 28.44 516.94 26.99 513.18 27.9C507.25 29.34 505.17 35.29 505.03 35.7C504.15 35.37 502.91 34.95 501.39 34.58C498.59 33.91 497.18 33.55 495.45 33.91C492.13 34.61 490.37 36.97 490.08 37.38C488.54 39.51 488.52 41.67 488.52 42.44C488.54 46.6 491.51 51.17 494.6 51.38C495.6 51.44 496.79 50.99 499.18 50.08C500.23 49.68 501.15 49.32 502.6 48.99C503.21 48.85 503.93 48.76 504.85 48.77C512.82 48.84 516.32 56.15 522.48 54.68C523.21 54.51 524.46 54.1 525.77 53.37C528.88 51.63 529.44 49.68 532.14 49.14C532.72 49.03 533.63 48.85 534.66 49.18C536.74 49.84 536.61 51.76 538.72 53.84C539.1 54.22 542 57 545.55 56.59C545.97 56.54 547.85 56.32 549.28 55.01C550.34 54.04 550.24 53.3 551.17 52.9C552.41 52.37 553.41 53.35 555.2 53.54C555.96 53.62 556.95 53.56 560.59 51.8C565.46 49.43 565.71 48.41 568.03 47.91C570.56 47.35 571.33 48.34 574.83 48.72C574.83 48.72 574.91 48.73 575.05 48.75C575.16 48.76 596.45 46.07 596.62 38.56C596.7 35.09 592.24 31.4 588.45 30.74Z" fill="#E9F4F6" fill-opacity="1.000000" fill-rule="nonzero"/>
	<path id="path" d="M570.04 43.26C565.17 40.53 562.97 35.84 562.09 33.51C561.91 33.72 560.61 35.22 558.84 35.06C557.68 34.95 556.87 34.17 556.21 33.52C555.39 32.72 554.93 31.88 554.69 31.32C548.77 38.01 538.16 41.94 532.14 35.82C526.81 42.8 519.3 46.08 513.46 44.1C512.19 43.67 510.25 42.74 508.34 40.52C507.93 41.21 507.27 42.15 506.29 43.08C503.47 45.72 499.14 46.94 494.86 46.15C493.6 45.91 490.63 45.1 487.69 41.54C489.1 47.33 491.76 50.23 493.44 51.65C501.44 58.42 516.61 56.85 522.48 54.98C523.32 54.71 525.76 53.87 528.89 54.23C531.74 54.56 533.65 55.7 534.92 56.38C539.64 58.9 545.86 60.4 551 60.12C554.65 59.91 559.52 58.71 563.56 56.42C564.65 55.81 566.54 54.75 569.37 53.75C570.9 53.2 572.55 52.87 575.11 52.65C584.45 51.84 586.86 54.44 591.75 52.55C592.83 52.13 596.62 50.64 598.02 46.89C599.7 42.35 596.62 37.94 596.23 37.41C588.33 45.31 577.54 47.46 570.04 43.26Z" fill="#CEEAF0" fill-opacity="1.000000" fill-rule="nonzero"/>
	<path id="path" d="M993.96 628.91C999.53 626.73 1004.63 626.72 1006.96 626.73C1011.97 626.76 1016.04 627.77 1018.77 628.66C1019.91 626.31 1021.92 622.9 1025.31 619.67C1027.23 617.86 1035.19 610.52 1047.23 611.02C1060.04 611.56 1067.61 620.58 1068.88 622.15C1075.07 629.82 1079.31 642.97 1074.13 651.36C1063.23 669.02 1012.96 661.82 1007.97 661.11C1005.61 660.77 999.44 659.54 991.83 661.29C985.53 662.74 984.52 664.77 979.41 666.23C969.41 669.09 954.87 666.59 951.69 658.58C949.93 654.17 951.65 648.06 955.22 644.82C957.89 642.38 961.01 641.85 963.51 641.45C965.29 641.17 966.65 641.22 968.41 641.29C970.74 641.39 974.09 641.72 978.12 642.81C979.96 639.71 984.85 632.47 993.96 628.91Z" fill="#FFFFFF" fill-opacity="1.000000" fill-rule="nonzero"/>
	<path id="path" d="M1070.41 666.58C1068.42 666.68 1066.41 666.55 1066.41 666.55C1065.18 666.45 1064.03 666.29 1062.78 666.12C1059.18 665.42 1055.63 664.73 1052.06 664.04C1046.64 665.62 1042.19 665.78 1039.21 665.64C1033.71 665.38 1032.48 664.07 1027.43 664.42C1023.13 664.72 1023.65 665.69 1016.37 666.83C1011.01 667.67 1007.8 667.59 1005.86 667.46C1004.92 667.4 1004.08 667.29 1003.98 667.28C1000.78 666.88 997.38 665.82 997.38 665.82C994.18 664.83 988.64 666.32 977.74 667.2C971.82 667.68 968.84 667.61 966.15 665.75C965.53 665.32 963.8 664.09 962.93 661.81C961.42 657.84 963.77 654.11 964.12 653.57C966.37 650.14 970.18 649.22 973.46 648.49C980.59 646.89 986.88 648.5 990.69 649.92C991.13 648.47 993.72 640.48 1001.76 636.67C1007.63 633.89 1013.22 634.83 1015.17 635.19C1018.92 635.87 1021.74 637.33 1023.46 638.4C1027.61 635.62 1033.8 632.38 1041.78 631.07C1046.42 630.31 1052.73 629.27 1059.64 632.21C1061.57 633.03 1065.81 634.9 1069.14 639.43C1071.43 642.56 1072.34 645.68 1072.73 647.56C1073.6 645.74 1076.16 641.04 1081.71 638.15C1082.79 637.59 1089.07 634.47 1096.59 636.77C1102.02 638.43 1105.07 642.02 1105.75 642.82C1107.85 645.39 1108.81 647.96 1109.26 649.54C1112.71 647.4 1116.85 647.27 1120.01 649.16C1121.87 650.28 1124.81 652.95 1124.25 655.35C1123.24 659.67 1111.28 661.53 1103.85 661.03C1102.19 660.92 1098.38 660.52 1093.12 661.08C1092.06 661.2 1090.59 661.39 1088.81 661.72C1080.46 663.32 1075.59 666.33 1070.41 666.58Z" fill="#E9F4F6" fill-opacity="1.000000" fill-rule="nonzero"/>
	<path id="path" d="M1062.79 667.82C1058.31 667.29 1054.68 666.14 1052.14 665.15C1042.9 667.46 1031.12 669.39 1017.54 669.23C1011.27 669.16 1005.49 668.65 1000.28 667.92C992.66 668.15 987.11 668.45 983.21 668.7C978.45 669.01 973.6 669.4 969.37 666.4C968.63 665.87 968.07 665.36 967.71 665.01C970.23 665 974.15 664.73 978.63 663.25C983.59 661.59 985.33 659.73 989.62 658.32C992.5 657.37 996.95 656.48 1003.14 657.44C1004.6 658.48 1007.4 660.16 1011.2 660.43C1019.68 661.03 1025.26 654.1 1025.81 653.39C1027.51 653.83 1030.06 654.26 1032.96 653.61C1036.52 652.81 1037.66 651.04 1042.02 649.11C1043.99 648.24 1046.81 646.99 1050.49 646.78C1056.47 646.45 1061.22 649.06 1063.31 650.22C1065.94 651.66 1065.71 652.07 1068.8 653.86C1072.56 656.03 1076.5 657.51 1078.64 657.96C1087.93 659.96 1097.82 650.21 1099.11 648.92C1099.85 652.5 1101.4 653.66 1102.23 654.09C1102.76 654.36 1103.67 654.69 1109.53 654C1113.09 653.59 1113.6 653.35 1114.85 653.62C1117.01 654.07 1119.93 655.58 1119.87 657.07C1119.75 659.78 1109.93 662.32 1103.92 662.1C1103.23 662.08 1101.1 661.97 1098.15 662.05C1096.68 662.08 1095.03 662.17 1093.18 662.34C1093.18 662.34 1090.93 662.55 1088.89 662.86C1084.15 663.59 1081.24 665.77 1077.05 667.12C1071.61 668.86 1066.85 668.3 1062.79 667.82Z" fill="#CEEAF0" fill-opacity="1.000000" fill-rule="nonzero"/>
	<path id="path" d="M1058.46 374.44C1051.64 379.33 1044.37 374.09 1037.88 378.92C1035.19 380.91 1034.89 382.96 1033.26 385.58C1024.86 399.05 996.2 403.42 976.1 394.96C970.4 392.56 967.34 387.53 961.33 388.06C955.93 388.54 954.27 390.88 946.67 392.6C940.69 393.96 936.02 393.51 929.54 392.82C918.59 391.67 915.37 389.37 907.66 387.91C885.92 383.77 876.06 395.25 866.54 387.86C862.12 384.43 859.78 378.47 860.12 373.17C860.67 364.47 868.28 359.55 869.19 358.98C873.53 356.28 877.95 356.04 879.9 355.96C887.72 355.62 890.15 359.26 894.1 357.71C897.96 356.19 897.22 352.11 901.28 344.55C902.74 341.82 910.15 328.73 922.37 326.38C924.93 325.89 928.74 325.17 932.24 327.09C936.86 329.63 938.03 334.47 940.14 334.01C941.42 333.72 941.19 331.97 943.13 330.89C945.11 329.77 947.8 330.24 949.57 331.21C953.35 333.26 953.17 337.69 954.8 337.77C956.85 337.87 957.07 330.9 961.43 325.14C967.61 316.99 978.37 316.17 979.19 316.12C979.89 316.08 990.78 315.57 998.22 323.27C1002.05 327.22 1003.83 332.18 1004.27 333.47C1006.39 339.75 1005.27 343.57 1007.39 344.51C1009.78 345.58 1011.91 340.95 1018.8 338.86C1020.62 338.31 1025.14 336.93 1029.96 338.8C1035.78 341.05 1038.27 346.55 1038.47 347.02C1040.35 351.34 1038.78 353.69 1040.67 355.03C1043.19 356.81 1046.46 352.86 1052.72 353.94C1053.82 354.13 1056.42 354.6 1058.87 356.57C1059.3 356.92 1063.93 360.77 1063.47 366.28C1063.06 371.04 1059.11 373.97 1058.46 374.44Z" fill="#F2F7F8" fill-opacity="1.000000" fill-rule="nonzero"/>
	<path id="path" d="M998.89 399.41C990.82 399.41 982.85 397.92 976.06 395.06C973.94 394.16 972.19 392.92 970.51 391.71C967.72 389.72 965.08 387.84 961.34 388.17C958.53 388.42 956.69 389.19 954.57 390.09C952.58 390.93 950.32 391.89 946.69 392.71C940.58 394.1 935.7 393.58 929.52 392.93C922.87 392.23 919.2 391.12 915.65 390.04C913.2 389.3 910.88 388.6 907.64 388.01C897.57 386.2 890.41 387.77 884.66 389.03C878.2 390.44 875.88 390.47 872.54 389.79C870.99 389.47 868.96 389.06 866.86 387.7C862.07 384.61 859.8 378.45 860.01 373.17C860.33 364.99 866.42 359.89 868.55 358.51C869.63 357.82 876.25 352.62 885.26 353.62C887.72 353.89 889.69 354.55 890.99 355.07C890.56 352.78 888.66 341.45 895.92 331.83C903.3 322.05 917.69 317.35 928.81 322.59C935.36 325.68 938.74 331.25 940.11 333.9C940.24 333.48 941.02 330.98 943.61 329.72C946.66 328.24 949.53 329.79 949.83 329.96C953.1 331.8 953.34 335.53 953.35 335.77C957.93 324.19 968.11 316.38 979.18 316.01C989.58 315.66 996.85 322.02 998.22 323.26C1007.27 331.5 1007.43 342.6 1007.43 344.41C1008.26 343.08 1011.4 338.39 1017.66 336.36C1019.2 335.87 1024.77 334.15 1030.84 336.98C1031.8 337.42 1037.28 340.07 1039.74 346.48C1041.12 350.08 1040.93 353.28 1040.73 354.93C1041.85 354.24 1043.59 353.35 1045.87 352.92C1046.55 352.79 1053.54 351.58 1058.93 356.49C1060.07 357.53 1064.01 361.09 1063.56 366.28C1063.18 370.84 1059.61 373.75 1058.52 374.53C1055.06 377.01 1051.47 376.91 1048 376.81C1044.48 376.71 1041.15 376.62 1037.93 379C1036.09 380.38 1035.39 381.77 1034.57 383.39C1034.22 384.1 1033.85 384.84 1033.35 385.63C1029.36 392.05 1020.51 396.77 1009.09 398.6C1005.72 399.14 1002.3 399.41 998.89 399.41ZM962.2 387.92C964.24 387.99 966.69 388.72 970.63 391.54C972.31 392.74 974.04 393.97 976.14 394.86C985.77 398.91 997.76 400.2 1009.05 398.39C1020.42 396.57 1029.21 391.88 1033.17 385.52C1033.66 384.73 1034.03 384 1034.38 383.3C1035.21 381.65 1035.92 380.23 1037.81 378.83C1041.07 376.4 1044.6 376.5 1048.01 376.59C1051.44 376.69 1055 376.79 1058.39 374.35L1058.52 374.53L1058.39 374.35C1059.46 373.59 1062.99 370.73 1063.36 366.27C1063.81 360.87 1059.31 357.07 1058.8 356.66C1056.31 354.67 1053.68 354.21 1052.69 354.04C1049.53 353.5 1046.98 354.33 1045.06 354.94C1040.09 356.53 1039.32 358.74 1037.62 358.18C1034.79 357.26 1036.53 351.22 1032.38 346.79C1029.51 343.73 1025.53 343.25 1024.41 343.11C1018.32 342.37 1012 345.9 1008.16 352C1003.21 341.46 998.3 338.71 994.67 338.2C985.96 337 980.42 348.14 968.61 348.02C963.09 347.96 958.61 345.47 955.73 343.42C955.62 343.93 954.63 348.27 950.82 349.85C950.12 350.15 947.34 351.37 944.69 349.85C942.53 348.62 941.89 346.4 941.75 345.88C941.57 346.97 939.01 361.14 925.86 366.95C915.13 371.69 905.16 367.42 903.31 366.58C897.72 364.05 894.28 360.24 892.59 358.08C891.38 360.16 889.39 362.75 886.31 363.62C882.74 364.63 880.67 362.5 876.7 362.14C871.08 361.64 863.39 364.83 860.99 371.01C858.29 377.98 863.41 386 868.96 389.4C872.19 391.38 875.16 391.47 880.61 391.55C890.59 391.7 914.51 389.44 915.72 389.83C915.72 389.83 915.77 389.85 915.84 389.87C916.11 389.96 916.69 390.14 917.45 390.36C918.52 390.68 919.94 391.07 921.62 391.45C923.78 391.93 926.31 392.37 929.55 392.71C935.7 393.36 940.56 393.88 946.65 392.5C948.13 392.16 949.38 391.8 950.47 391.44C952.36 390.81 953.47 390.3 954.49 389.89C957.11 388.83 959.58 387.83 962.2 387.92Z" fill="#FFFFFF" fill-opacity="1.000000" fill-rule="nonzero"/>
	<path id="path" d="M970.75 379.9C963.73 380.82 957.64 378.27 953.89 376.22C950.94 379.72 946.25 384.16 940.7 383.89C935.82 383.65 935.22 380 929.97 378.37C921.69 375.79 917.67 383.15 900.8 386.01C894.06 387.15 890.32 387.78 885.76 386.15C879.98 384.08 877.96 380.18 872.67 379.76C868.5 379.43 864.91 381.45 862.54 383.21C863.52 384.89 865.16 387.29 867.75 389.59C874.15 395.29 881.65 396.16 886.53 396.73C894.43 397.65 900.62 396.34 907.29 394.93C912.27 393.87 916.35 392.58 919.24 391.55C921.43 392.35 924.56 393.42 928.37 394.49C938.21 397.25 946.83 398.39 958.49 399.22C967.21 399.84 981.56 400.55 1000.05 399.71C1012.55 399.14 1020.97 398.13 1028.9 392.35C1031.92 390.15 1034.06 387.85 1035.43 386.19C1037.56 386.94 1042.12 388.17 1047.16 386.59C1053.96 384.45 1059.81 377.79 1058.46 374.44C1058.01 373.34 1056.55 372.01 1046.48 371.62C1030.66 371.02 1026.89 374.01 1016.55 373.2C1003.62 372.2 1004.16 367.1 995.58 368.25C984.53 369.73 981.84 378.45 970.75 379.9Z" fill="#CEEAF0" fill-opacity="1.000000" fill-rule="nonzero"/>
	<path id="path" d="M1080.18 375.47C1079.11 374.35 1077.41 372.82 1075.02 371.52C1073.75 370.84 1071.56 369.67 1068.68 369.32C1063.93 368.74 1060.12 370.75 1058.53 371.73C1057.36 370.48 1050.44 363.33 1039.28 363.23C1029.06 363.14 1022.39 369.02 1020.95 370.35C1019.76 369.73 1017.41 368.71 1014.41 368.92C1008.21 369.34 1004.77 374.58 1004.35 375.24C1003.41 374.68 1001.93 373.91 1000.02 373.31C998.07 372.7 994.18 371.49 990.08 372.96C988.66 373.47 985.6 374.57 984.89 377.29C984.86 377.38 984.31 379.63 985.57 381.2C987.73 383.9 993.58 382.22 995 382.22C1008.62 382.24 1089.25 390.82 1091.61 379.77C1091.87 378.52 1091.23 376.59 1090.02 375.47C1087.29 372.94 1081.88 374.82 1080.18 375.47Z" fill="#FFFFFF" fill-opacity="1.000000" fill-rule="nonzero"/>
	<path id="path" d="M1079.4 378.17C1078.44 377.15 1076.89 375.76 1074.64 374.81C1070.89 373.23 1067.38 373.81 1065.62 374.12C1049.54 376.96 1048.27 379.28 1042.32 378.88C1033.5 378.29 1031.37 373.27 1021.3 373.06C1018.05 373 1014.74 373.24 1011.24 374.52C1008.19 375.64 1005.93 377.16 1004.48 378.3C1002.13 377.37 996 375.31 989.85 377.96C988.63 378.49 985.44 379.87 985.57 381.2C985.86 384.36 1004.67 382.82 1032.29 385.52C1032.29 385.52 1073.67 389.57 1087.93 383.02C1088.93 382.57 1091.67 381.31 1091.61 379.77C1091.56 378.64 1090.04 377.87 1089.43 377.56C1085.66 375.64 1081.16 377.38 1079.4 378.17Z" fill="#CEEAF0" fill-opacity="1.000000" fill-rule="nonzero"/>
	<path id="path" d="M946.52 101C942.75 101.1 939.71 101.82 937.72 102.43C937.76 101.51 937.93 96.05 932.97 91.77C928.11 87.58 921.91 87.6 920.22 87.67C917.61 87.77 915.3 88.67 910.66 90.41C907.14 91.72 904.3 93.04 902.33 94.02C900.51 91.75 897.68 88.63 893.69 85.59C890.5 83.16 888.09 81.32 884.36 80.15C878.3 78.24 872.02 79.19 868.42 81.18C865.04 83.05 863.06 85.99 862.85 86.31C862.12 87.39 861.66 88.24 861.34 88.89C860.61 90.4 860.53 90.61 860.45 90.65C859.93 90.73 859.05 87.09 858.78 86C857.47 80.85 855.42 76.38 854.93 75.38C852.77 70.87 849.67 68.14 847.72 66.42C835.94 56.07 817.98 59.03 816.7 59.27C811.05 60.31 797.18 62.87 791.68 74.96C787.67 83.79 790.43 92.6 791.43 95.38C791.41 95.38 789.13 95.65 789.11 95.65C787.96 95.79 786.8 95.92 786.8 95.92C783.86 95.98 783.32 95.48 780.36 95.39C778.12 95.32 775.64 95.23 773.32 96.52C772.79 96.81 770.26 98.22 769.68 100.65C769.11 103.05 770.9 104.52 769.88 105.57C769.08 106.39 767.75 105.74 765.53 106.25C763.38 106.74 761.17 108.18 759.99 110.15C758.61 112.45 758.99 114.87 759.51 118.22C759.74 119.65 760.11 121.91 761.46 124.48C763.38 128.14 766.08 130.15 767.51 131.18C773.44 135.47 783.28 138.06 791.49 134.64C794.93 133.2 793.79 132.51 802.03 127.63C802.03 127.63 809.46 123.33 814.83 123.87C818.05 124.2 817.74 125.73 820.85 125.96C826.64 126.4 829.28 121.51 833.36 122.54C835.99 123.2 835.25 125.36 838.75 127.22C842.64 129.28 847.26 128.61 850.33 128.16C854.66 127.53 857.62 126.02 858.26 125.69C861.64 123.92 861.91 122.64 863.83 121.86C868.37 120.03 874.03 124.95 878.08 126.02C897.45 131.14 924.89 128.87 932.79 121.1C933.75 120.16 933.99 119.17 935.38 118.3C941.53 114.47 950.29 121.69 956.82 118.31C960.11 116.61 961.53 112.9 961.55 110.14C961.56 109.51 961.66 106.18 958.87 103.74C955.49 100.77 950.41 100.9 946.52 101Z" fill="#F2F7F8" fill-opacity="1.000000" fill-rule="nonzero"/>
	<path id="path" d="M828.31 128.64C817.31 132.58 806.75 137.55 790.57 137.45C771.93 137.34 764.7 130.55 762.28 127.86C760.79 126.21 756.42 121.35 757.06 115.03C757.18 113.81 758 107.55 763.02 105.49C765.92 104.31 768.74 105.13 769.8 105.51C769.5 104.59 768.41 100.89 770.33 97.44C772.76 93.08 778.46 91.89 782.56 92.97C784.84 93.57 786.43 94.82 787.32 95.65C786.45 94.1 785.34 91.77 784.68 88.77C783.22 82.14 784.94 76.75 785.63 74.7C788.83 65.13 796.65 60.09 799.56 58.22C816.22 47.49 835 53.81 836.09 54.19C840.01 55.58 852.31 59.94 857.71 72.39C860.4 78.57 860.34 84.33 860.03 87.61C860.36 86 861.14 83.4 863.17 80.98C866.94 76.49 872.37 75.82 874.86 75.52C882.15 74.63 887.8 77.61 890.52 79.1C897.96 83.16 901.8 89.27 903.41 92.29C904.29 91.36 910.68 84.83 920.27 85.59C926.17 86.05 933.2 89.28 936.27 95.72C937.49 98.27 937.78 100.67 937.83 102.3C938.91 101.26 942.18 98.42 947.06 98.12C952.4 97.79 957.93 100.63 960.32 105.24C960.73 106.04 961.61 107.79 961.55 110.14C961.42 114.96 957.4 118.8 953.84 120.28C948.62 122.45 943.08 120.09 941.63 119.53C924.99 112.99 869.44 113.94 828.31 128.64ZM909.72 128.3C909.72 128.3 925.69 127.94 932.71 121.04C933.07 120.69 933.33 120.33 933.58 119.97C934 119.39 934.43 118.78 935.32 118.22C938.49 116.25 942.4 117.19 946.19 118.09C949.83 118.97 953.6 119.87 956.77 118.23C959.97 116.58 961.42 112.98 961.44 110.14C961.23 109.23 960.8 107.95 959.88 106.66C955.98 101.22 947.75 102.01 946.91 102.1C942.06 102.63 938.74 105.25 937.29 106.56C936.81 104.76 935.49 100.79 931.86 97.27C930.66 96.11 927.2 92.73 921.94 92.07C915.93 91.31 911.01 94.36 906.07 97.46C904.38 98.52 903.04 99.53 902.11 100.28C901.62 98.14 899.61 90.57 892.61 86.24C882.95 80.25 869.73 87.55 864.8 90.16C861.86 91.72 859.62 93.33 858.2 94.43C858.24 92.89 858.27 85.33 852.48 79.49C851.05 78.05 847.61 74.57 842.81 74.22C832.85 73.47 830.18 87.14 817.77 88.72C810.99 89.58 807.85 86.02 802.38 88.72C798.24 90.77 796 94.82 794.73 98.08C793.11 97.51 787.84 95.88 782.63 98.34C781.14 99.04 778.43 100.31 777.23 103.31C776.41 105.34 776.66 107.25 776.86 108.22C775.8 108.68 770.44 111.09 768.16 117.13C767.86 117.92 766.2 122.31 767.72 126.43C770.46 133.83 781.74 135.68 784.99 136.21C800.13 138.68 806.32 131.13 838.81 127.14C838.81 127.14 839.53 127.03 840.51 126.94C844.9 126.54 852.7 126.85 909.72 128.3Z" fill="#FFFFFF" fill-opacity="1.000000" fill-rule="nonzero"/>
	<path id="path" d="M948.56 117.02C947.09 117.1 941.67 117.19 937.08 113.73C935.45 112.5 934.26 111.08 933.49 110.15C930.99 107.15 931.1 106.01 929.3 103.93C926.55 100.76 923.02 99.65 922.13 99.38C918.16 98.19 914.79 99.04 912.77 99.57C907.43 100.97 903.96 104.15 902.33 105.9C899.93 103.75 892.21 97.39 880.41 96.55C870.73 95.85 863.44 99.23 860.44 100.84C858.78 99.38 856.2 97.59 852.93 97.41C848.06 97.14 844.83 100.82 841.15 103.26C837.14 105.93 830.47 108.59 819.18 107.47C818.23 108.73 812.47 116.19 801.97 117.35C790.8 118.57 783.24 111.67 782.17 110.66C780.78 110.9 778.58 111.45 776.26 112.88C774.89 113.73 772.62 115.09 771.54 117.41C769.52 121.75 772.27 126.56 772.96 127.75C777.27 135.26 787.35 136.92 790.57 137.45C804.99 139.82 818.28 133.93 830.57 133.42C832.49 133.35 835.03 133.24 838.37 133.67C841.61 134.1 842.77 134.65 846.01 135.09C846.01 135.09 849.4 135.56 854.01 135.4C862.77 135.11 878.5 130.67 880.39 130.15C904.59 123.51 931.31 135.86 936.47 128.34C936.79 127.87 937.48 126.54 939.06 125.54C942.34 123.47 944.72 124.92 949.67 123.85C951.05 123.55 955.91 122.44 959.08 118.44C959.64 117.73 961.16 115.69 961.62 112.6C961.89 110.8 961.69 109.29 961.49 108.32C961.19 109.45 960.58 111.12 959.27 112.7C955.97 116.65 950.85 116.91 948.56 117.02Z" fill="#CEEAF0" fill-opacity="1.000000" fill-rule="nonzero"/>
	<path id="path" d="M922.04 130.92C922.64 131.35 923.51 130.31 925.23 129.92C927.15 129.49 928.98 129.73 929.88 129.85C930.66 129.94 932.56 130.19 934.04 131.05C936.2 132.31 936.71 134.42 935.5 135.98C933.86 138.09 929.45 138.94 926.35 139C920.72 139.12 919.63 136.66 913.91 136.59C909.23 136.53 909.02 138.03 902.38 138.7C900.25 138.92 892.29 139.72 887.49 137.12C886.71 136.7 883.74 134.96 884.64 133.2C885.26 131.99 887.58 131.07 889.68 130.86C891.47 130.69 892.82 131.31 893.1 130.78C893.31 130.39 892.6 129.94 892.19 128.77C891.65 127.22 892.1 125.77 892.26 125.24C892.88 123.23 894.31 122.15 894.76 121.81C897.38 119.88 901.04 120.09 903.5 121.31C906.25 122.67 907.78 125.16 907.78 125.16C908.55 126.42 908.68 127.32 909.56 127.62C910.65 128 910.99 126.83 913.45 126.4C915.58 126.04 917.52 126.54 917.85 126.62C917.91 126.64 917.96 126.65 918 126.66C918.4 126.77 920.81 127.47 921.59 129.24C922 130.17 921.63 130.63 922.04 130.92Z" fill="#CEEAF0" fill-opacity="1.000000" fill-rule="nonzero"/>
	<path id="path" d="M858.23 134.19C857.35 133.94 856.07 133.55 854.48 132.99C853.7 132.71 853.09 132.47 852.56 132.26C851.23 131.75 850.42 131.43 848.9 131.23C847.02 130.98 845.91 131.15 844.38 131.39C843.39 131.55 842.15 131.74 840.39 131.86C833.25 132.33 825.94 132.82 823.36 129.11C821.81 126.89 822.19 123.54 823.47 121.32C825.64 117.54 831.14 115.76 836.68 117.78C837.03 116.21 837.74 114.11 839.3 112.1C842.88 107.48 849.72 104.91 855.3 106.98C857.38 107.76 858.81 109 859.58 109.77C860.96 107.7 864.1 103.61 869.62 101.22C876.82 98.1 883.47 99.87 887.13 100.84C894.7 102.85 899.72 107.11 902.21 109.59C902.46 109.36 907.12 105.23 913.19 106.98C917.19 108.14 920.27 111.41 921.21 115.5C923.2 114.7 925.8 114.02 928.83 114.06C930.75 114.08 934.92 114.19 938.69 117.03C940.31 118.26 942.67 120.04 942.76 122.57C942.9 126.42 937.72 129.55 934.84 130.44C931.78 131.39 928.41 131.52 927.45 131.54C925.57 131.58 924.53 131.42 923.61 131.27C922.66 131.13 921.83 131 920.3 131.11C918.5 131.24 917.42 131.59 916.37 131.93C915.2 132.3 914 132.69 911.83 132.77C909.83 132.84 908.27 132.61 907.03 132.43C904.44 132.05 903.09 131.54 902 131.14C900.95 130.75 900.18 130.46 898.79 130.46C897.1 130.44 896.13 130.86 895.1 131.31C894.02 131.77 892.9 132.25 890.9 132.2C889.7 132.17 888.98 131.97 888.22 131.76C887.38 131.53 886.52 131.29 884.87 131.2C882.41 131.08 880.49 131.43 879.46 131.63C877.49 131.99 876.53 132.43 875.41 132.95C874.39 133.42 873.24 133.96 871.11 134.54C870.12 134.81 869.21 135.06 868.25 135.24C867.82 135.32 866.54 135.52 865.11 135.53C863.02 135.55 861.42 135.1 858.23 134.19Z" fill="#FFFFFF" fill-opacity="1.000000" fill-rule="nonzero"/>
	<path id="path" d="M901.46 113.31C899.96 111.98 897.73 110.24 894.76 108.66C893.39 107.93 888.56 105.35 883.41 104.93C873.59 104.13 865.91 111.44 864.31 113.03C859.34 109.24 853.44 109.07 850.46 111.82C848.93 113.23 847.04 116.45 847.98 118.63C848.5 119.84 850.19 121.41 849.67 122.24C848.49 121.43 845.92 119.84 842.45 119.83C841.78 119.82 836 119.8 834.7 123.18C834.07 124.83 834.65 126.88 835.75 128.2C838.85 131.89 846.54 130.35 846.98 130.26C846.98 130.26 850.06 129.61 852.94 129.6C853.79 129.6 854.62 129.71 854.62 129.71C857.14 130.04 857.41 130.72 862.72 132.27C866.68 133.44 867.75 133.48 868.58 133.43C870.53 133.3 871.61 132.65 872.96 133C873.97 133.27 873.87 133.75 875.02 134.4C876.58 135.26 878.62 135.41 879.08 135.44C882.94 135.71 886.09 133.88 886.51 133.62C888.81 132.25 888.67 130.98 890.93 130.54C892.05 130.33 893.04 130.45 893.67 130.52C896.61 130.88 897.21 132.16 900.6 133.31C902.03 133.8 903.39 134.07 904.18 134.18C910.89 135.15 914.69 130.32 923.37 130.27C927.77 130.25 927.96 131.48 931.87 131.12C936.48 130.7 941.64 128.47 942.99 125.06C944 122.49 942.69 119.62 939.31 117.78C936.63 116.32 934.27 115.83 930.56 115.74C927.82 115.68 923.73 115.89 918.85 117.33C918.22 116.13 916.86 113.99 914.31 112.57C908.37 109.26 901.82 113.1 901.46 113.31Z" fill="#F2F7F8" fill-opacity="1.000000" fill-rule="nonzero"/>
	<path id="path" d="M890.36 121.61C890.96 122.03 891.83 120.99 893.55 120.61C895.47 120.18 897.3 120.42 898.2 120.53C898.98 120.63 900.88 120.88 902.36 121.74C904.52 122.99 905.03 125.11 903.82 126.67C902.18 128.78 897.77 129.62 894.67 129.69C889.04 129.8 887.95 127.34 882.23 127.27C877.55 127.21 877.34 128.71 870.7 129.39C868.57 129.6 860.61 130.41 855.81 127.81C855.03 127.39 852.06 125.64 852.96 123.89C853.58 122.68 855.9 121.76 858 121.55C859.79 121.38 861.14 121.99 861.42 121.47C861.62 121.07 860.92 120.63 860.51 119.45C859.97 117.91 860.42 116.46 860.58 115.92C861.2 113.92 862.63 112.83 863.08 112.5C865.7 110.57 869.36 110.78 871.82 111.99C874.57 113.35 876.1 115.85 876.1 115.85C876.87 117.11 877 118 877.88 118.31C878.97 118.69 879.31 117.52 881.77 117.09C883.9 116.72 885.84 117.22 886.17 117.31C886.23 117.33 886.28 117.34 886.32 117.35C886.72 117.46 889.13 118.15 889.91 119.93C890.32 120.85 889.95 121.32 890.36 121.61Z" fill="#FFFFFF" fill-opacity="1.000000" fill-rule="nonzero"/>
	<path id="path" d="M882.35 128.9C881.83 128.73 881.15 128.42 880.04 128.47C876.67 128.64 872.88 129.54 870.19 129.84C866.79 130.23 864.1 129.8 864.1 129.65C864.1 129.47 867.82 129.99 872.33 128.47C875.25 127.49 875.63 126.63 878.75 125.9C880.45 125.51 882.25 125.11 884.41 125.56C887.34 126.17 887.36 127.61 889.53 127.9C892.84 128.33 893.63 125.08 897.86 124.62C901.28 124.24 901.91 126.24 905.23 125.69C908.31 125.18 908.37 123.42 911.82 121.95C915.3 120.47 920.34 120.28 923.55 122.68C926.32 124.74 925.37 126.96 927.84 128.71C932.59 132.07 940.58 126.71 941.04 127.65C941.53 128.64 933.22 135.24 927.84 133.92C926.35 133.56 925 132.56 922.68 132.75C921.82 132.83 920.4 133.1 919.37 132.27C918.95 131.92 918.92 131.65 918.58 131.5C917.49 131.04 915.85 132.91 914.83 133.78C910.64 137.39 901.97 137.21 899.03 133.92C898.44 133.27 898.04 132.44 897.08 132.27C895.54 131.98 894.89 133.8 892.89 134.21C890.78 134.65 888.68 133.19 886.89 131.95C885.01 130.64 884.42 129.58 882.35 128.9Z" fill="#CEEAF0" fill-opacity="1.000000" fill-rule="nonzero"/>
	<path id="path" d="M338.76 687.67C334.52 693.24 326.1 695.23 318.18 692.14C317.27 693.85 315.79 696.27 313.57 698.81C300.75 713.4 277.13 715.71 259.6 710.44C255.19 709.11 248.68 706.55 241.64 701.29C239.12 702.59 235.83 703.98 231.84 704.95C225.7 706.45 220.37 706.34 216.73 705.96C208.33 709.22 200.83 710.88 194.87 711.76C188.44 712.7 159.89 716.26 136.66 700.55C128.78 695.22 126.58 691.1 125.82 687.62C124.22 680.31 128.11 671.88 131.81 669.48C133.08 668.66 135.97 666.87 139.08 663.47C139.57 662.93 140.03 662.29 140.53 661.4C145.08 653.19 136.39 646.7 138.55 636.54C141.11 624.57 157.87 612.44 170.51 614.72C176.87 615.87 178.77 620.06 184.71 619.21C192.24 618.14 192.87 610.88 199.81 609.72C208.04 608.35 218.35 616.66 219.85 624.86C220.64 629.19 219.05 634 219.69 634.14C220.17 634.24 220.47 631.45 222.61 629.44C225.4 626.81 230.47 626.32 234.47 628.11C238.35 629.85 241.5 633.88 241.37 637.86C241.23 642.51 236.65 645.72 237.05 646.12C237.46 646.53 241.44 642.22 247 639.38C254.91 635.34 263.44 637.74 264.64 638.1C274.34 640.97 280.05 649.62 280.69 650.61C282.76 653.84 282.97 655.63 285.1 656.45C288.68 657.82 291.2 653.92 299.1 652.09C302.43 651.32 306.18 650.45 310.26 652.03C316.09 654.28 318.57 659.78 318.78 660.25C320.65 664.57 319.08 666.92 320.97 668.26C323.5 670.04 326.76 666.09 333.03 667.17C334.25 667.38 337.11 667.8 339.17 669.8C343.24 673.77 342.75 682.44 338.76 687.67Z" fill="#E9F4F6" fill-opacity="1.000000" fill-rule="nonzero"/>
	<path id="path" d="M308.26 674.95C304.24 672.8 297.29 669.08 288.99 667.87C275.1 665.84 271.45 672.87 260.07 670.27C250.31 668.04 249.71 662.13 240.45 658.48C233.61 655.79 222.83 654.63 206 662.52C203.94 660.39 200 656.94 194.11 655.2C184.01 652.2 171.06 655.09 165.86 662.98C160.48 671.13 166.71 679.58 160.24 685.7C156.19 689.53 150.11 689.64 148.95 689.66C140.47 689.81 135.65 683.92 133.31 685.7C131.33 687.2 132.34 693.2 134.92 697.75C144.5 714.62 177.4 714.38 194.87 711.76C204.49 710.32 212.06 707.77 216.73 705.96C220.37 706.34 225.7 706.45 231.84 704.95C235.83 703.98 239.12 702.59 241.64 701.3C248.68 706.56 255.19 709.11 259.6 710.44C277.13 715.72 300.75 713.41 313.57 698.81C315.79 696.27 317.27 693.85 318.18 692.15C320.72 693.11 324.58 694.07 329.05 693.3C331.17 692.94 337.66 691.82 338.76 687.67C339.34 685.48 338.37 682.59 336.53 681.74C334.43 680.77 332.47 683 329.59 683.92C323.39 685.89 317.98 680.14 308.26 674.95Z" fill="#CEEAF0" fill-opacity="1.000000" fill-rule="nonzero"/>
	<path id="path" d="M342.5 670.63C341.95 669.87 339.68 666.93 335.54 665.65C331.85 664.5 328.71 665.31 326.51 665.88C324.09 666.51 322.24 667.45 321.04 668.17C321.32 666.09 321.85 660.02 318.03 655C311.45 646.36 298.37 649.18 297.09 649.48C290.98 650.89 286.97 654.47 285.13 656.34C284.65 654.5 281.43 642.92 270.04 637.31C267.3 635.96 259.98 632.92 251.31 635.15C247.44 636.14 244.57 637.86 242.8 639.11C242.93 633.03 239.32 627.68 234.07 625.91C227.92 623.83 222.59 627.68 222.1 628.05C222.14 627.4 222.7 613.51 211.32 605.93C201.71 599.53 191.33 602.78 190.34 603.12C183.01 605.55 179.09 610.84 177.84 612.68C176.38 612.11 160.81 606.3 146.68 615.72C135.64 623.08 130.45 636.43 132.25 648.05C133.07 653.3 135.16 657.29 136.69 659.7C134.86 660.53 132.14 662.01 129.46 664.59C128.11 665.9 124.98 668.97 123.31 674.01C122.64 676.04 120.53 682.37 123.68 688.84C126.8 695.22 133.33 698.22 133.71 697.8C133.88 697.61 132.83 696.69 131.66 694.93C131.02 693.96 128.06 689.27 128.38 683.13C128.76 675.65 133.74 670.86 135.12 669.63C139.18 666.02 143.61 665.01 145.57 664.68C145 661.81 143.62 652.98 148.36 643.65C148.98 642.44 155.07 630.91 168.32 627.33C174.07 625.78 179.08 626.28 181.65 626.72C189.95 628.11 192.88 632.6 202.83 635.15C206.87 636.19 210.28 636.47 212.42 636.56C213.68 638.86 215.77 642.13 219.07 645.4C221.2 647.51 222.73 649.04 225.07 649.89C231.11 652.09 236.53 648.88 237.31 648.4C239.66 646.81 246.46 642.69 255.93 643.01C260.21 643.15 268.11 644.31 275.04 650.39C281.04 655.67 283.26 661.94 284.04 664.64C285.14 663.49 291.71 656.83 301.31 657.39C303.24 657.5 308.36 657.88 312.76 661.88C318.51 667.1 318.53 674.4 318.51 675.63C319.46 674.45 321.77 671.89 325.57 670.87C330.21 669.62 336.63 670.85 339.72 675.81C341.92 679.32 341.55 684.87 338.7 687.59C338.46 687.81 338.2 688.02 337.91 688.21C338.22 688.1 338.52 687.94 338.82 687.76C340.14 687 343.94 684.8 345 680.38C346.14 675.61 343.27 671.69 342.5 670.63Z" fill="#FFFFFF" fill-opacity="1.000000" fill-rule="nonzero"/>
	<path id="path" d="M184.77 695.65C192.64 695.38 199.95 689.99 203.64 681.86C210.22 687.03 214.89 687.42 217.89 686.87C225.43 685.5 226 677.6 235.84 674.32C243.27 671.84 250.64 673.38 250.64 673.38C256.17 674.54 259.54 677.16 263.28 675.56C265.67 674.55 267.01 672.34 267.75 670.75C266.2 670.55 265.07 670.12 264.38 669.79C261.17 668.29 258.87 665.46 257.39 663.09C254.54 660.39 249.34 656.27 241.76 654.04C229.28 650.37 218.76 654.31 215.48 655.71C211.65 657.34 208.76 659.31 206.85 660.8C206.88 659.51 206.84 657.7 206.51 655.57C206.3 654.26 205.26 647.68 201.27 642.97C195.91 636.64 185.87 634.46 177.65 637.06C168.39 639.98 164.32 647.96 162.98 650.58C157.72 660.89 158.8 673.72 165.14 683.05C167.48 686.49 173.95 696.01 184.77 695.65Z" fill="#E9F4F6" fill-opacity="1.000000" fill-rule="nonzero"/>
	<path id="path" d="M172.71 691.61C172.75 691.57 172.78 691.54 172.82 691.51C166.88 686.09 162.4 677.43 164.16 672.03C164.41 671.25 165.22 668.76 167.39 667.72C169.65 666.64 171.2 668.2 173.71 668.21C180.01 668.23 181.25 658.39 189.01 656.79C193.12 655.95 196.59 657.91 197.46 658.4C202.81 661.41 204.13 667.17 204.35 668.22C206.49 666.22 210.14 663.29 215.36 661.24C223.96 657.87 231.76 658.91 235.63 659.7C242.74 661.15 248.62 664.82 251.13 666.55C256.69 670.39 259.91 674.47 263.85 673.57C265.67 673.15 266.95 671.83 267.75 670.75C266.2 670.55 265.08 670.11 264.38 669.79C261.17 668.29 258.87 665.46 257.39 663.09C252.4 655.31 241 652.49 239.74 652.18C231.02 650.02 223.4 652.73 218.9 654.33C213.53 656.24 209.49 658.83 206.85 660.79C206.88 659.51 206.85 657.69 206.51 655.57C206.3 654.26 205.25 647.68 201.27 642.97C196.1 636.85 186.17 634.37 177.65 637.05C168.39 639.97 164.32 647.95 162.98 650.58C154.98 666.26 164.73 682.37 165.15 683.05C166.39 685.08 168.8 688.38 172.71 691.61Z" fill="#FFFFFF" fill-opacity="1.000000" fill-rule="nonzero"/>
	<path id="path" d="M274.51 690.81C274.47 690.26 274.41 688.43 275.66 686.83C277.19 684.85 279.57 684.7 280.41 684.65C283.11 684.47 285.05 685.85 285.63 686.29C285.6 685.57 285.57 682.47 287.9 679.83C290.01 677.44 292.69 676.96 293.66 676.81C294.33 676.7 299.35 675.96 302.08 679.24C303.64 681.11 303.86 683.57 303.91 684.11C303.99 685.07 303.92 685.87 303.83 686.43C304.02 686.14 305.6 683.8 308.52 683.58C311.33 683.36 313.17 685.26 313.61 685.72C316.24 688.44 315.56 692.23 315.48 692.64C317.44 692.04 319.55 692.65 320.82 694.16C322.25 695.87 322.34 698.43 320.98 700.34C320.6 700.68 320.01 701.16 319.26 701.7C318.85 701.99 314.53 704.98 309.1 705.67C301.04 706.68 298.72 701.6 290.36 703.21C288.17 703.63 288.77 703.9 286.22 704.44C284.6 704.78 274.95 706.83 268.46 701.41C267.1 700.27 264.49 698.05 264.75 694.99C264.94 692.8 266.6 690.44 269.16 689.73C271.96 688.96 274.23 690.59 274.51 690.81Z" fill="#FFFFFF" fill-opacity="1.000000" fill-rule="nonzero"/>
	<path id="path" d="M290.58 695.36C286.21 696.41 283.35 699.03 282 700.47C281.79 700.09 279.72 696.46 275.85 696.16C273.36 695.97 270.13 697.17 269.75 699.17C269.36 701.22 272.1 703.26 272.68 703.7C276.87 706.81 280.6 705.06 290.88 705.57C297.01 705.87 298.5 706.63 303.5 706.11C310.72 705.35 312.45 703.26 313.07 702.05C313.19 701.83 313.87 700.47 313.57 698.8C312.99 695.67 309.44 694.41 309.06 694.29C308.58 694.13 305.14 692.97 302.96 695.06C301.9 696.08 301.63 697.4 301.55 698.03C300.9 697.31 299.79 696.28 298.16 695.57C295.14 694.26 292.33 694.94 290.58 695.36Z" fill="#E9F4F6" fill-opacity="1.000000" fill-rule="nonzero"/>
	<path id="path" d="M46.7 143.13C43.09 147.2 29.47 133.95 13.16 136.18C11.23 136.45 2.01 137.71 0.28 143.44C-0.69 146.64 0.98 150.67 3.49 152.8C5.22 154.27 7.86 154.29 12.87 154.69C14.92 154.86 16.88 154.88 18.02 156.3C18.75 157.21 18.34 157.89 18.99 158.9C20.33 161 23.39 161.88 26.43 162.21C32.17 162.83 41.6 163.85 49.45 159.58C50.68 158.91 53.05 157.47 55.93 157.91C57.66 158.18 57.65 158.84 60.28 159.71C63.32 160.72 65.98 160.72 67.83 160.73C74.17 160.78 75.72 158.77 80.03 158.74C85.01 158.7 87.46 161.79 92.14 163.46C108.64 169.34 132.42 168.09 139.59 160.57C140.55 159.56 140.74 158.77 141.94 157.85C145.79 154.92 149.87 155.61 160.61 155.19C167.78 154.91 169.56 154.39 171.16 153.11C174.31 150.57 174.86 146.59 174.94 145.96C175.82 138.81 169.28 132.99 166.74 130.73C161.89 126.41 156.48 124.12 147.13 121.78C138.95 119.73 117.4 114.55 96.87 119.11C91.3 120.35 86.93 121.36 82.41 124.74C77.74 128.23 77.42 130.85 73.38 132.25C67.66 134.23 65.8 129.76 59.22 131.44C54.39 132.68 49.47 136.58 47.39 141.43C46.83 142.72 47.05 142.74 46.7 143.13Z" fill="#E9F4F6" fill-opacity="1.000000" fill-rule="nonzero"/>
	<path id="path" d="M211.21 149.21C199.34 158.38 153.99 152.72 154.24 150.12C154.38 148.63 169.41 150.83 172.21 144.28C173.12 142.14 172.65 139.23 171.62 137.17C170.24 134.41 167.86 133.2 166.11 132.31C165.27 131.88 161.64 130.12 156.45 130.42C150.91 130.74 149.15 133.06 146.86 131.78C144.63 130.55 145.91 127.89 143.46 124.65C139.6 119.52 131.99 119.59 131.45 119.6C127.3 119.69 123.89 121.52 122.29 122.38C121.41 122.85 120.09 123.91 117.62 125.39C115.68 126.55 114.72 127.13 114.18 127.28C111.11 128.11 108.74 125.53 104.99 123.72C104.99 123.72 99.84 121.23 93.5 121.61C85.35 122.11 79.73 127.45 78.11 128.99C74.64 132.29 72.76 135.78 71.78 137.95C70.96 136.85 69.25 134.88 66.42 133.68C61.52 131.61 56.93 133.41 55.74 133.86C49.8 136.12 47.63 141.4 46.99 140.99C46.28 140.54 48.26 133.93 53.46 128.78C58.95 123.33 65.43 122.1 66.99 121.84C72.92 120.86 77.67 122.29 79.85 123.1C80.41 121.55 84.61 110.53 95.01 107.34C99.66 105.92 103.87 106.56 104.49 106.66C109.7 107.52 113.19 110.17 114.68 111.45C114.99 111.16 117.54 108.87 121.17 109.44C124.42 109.96 126.11 112.38 126.39 112.8C127.5 110.73 129.43 107.71 132.63 104.87C134.82 102.93 139.91 98.56 147.66 98.04C156.1 97.49 162.17 101.86 164.06 103.38C172.81 110.36 173.41 120.78 173.48 122.43C174.32 121.45 176.34 119.38 179.64 118.31C181.45 117.72 185.07 116.99 188.89 118.66C193.63 120.74 195.49 125.38 195.64 125.78C197.04 129.42 195.65 131.32 197.17 132.49C199.2 134.06 202.05 130.9 207.2 132.02C208.1 132.22 210.23 132.71 212.19 134.43C212.54 134.73 216.23 138.09 215.65 142.63C215.21 146.12 212.35 148.33 211.21 149.21Z" fill="#FFFFFF" fill-opacity="1.000000" fill-rule="nonzero"/>
	<path id="path" d="M169.2 143.45C162.32 141.11 162.99 139.33 157.54 137.75C143.64 133.71 134.27 146.41 121.54 142.14C117.51 140.79 114.76 138.28 113.27 136.7C112.11 138.18 103.62 148.66 90.07 148.52C83.69 148.46 78.82 146.07 76.25 144.53C72.07 150.57 64.72 153.24 58.27 151.25C50.55 148.88 48.08 141.04 47.89 140.39C47.71 140.73 47.54 141.08 47.38 141.43C46.83 142.72 47.05 142.74 46.7 143.13C43.09 147.2 29.47 133.95 13.16 136.18C11.23 136.44 2.01 137.71 0.27 143.44C-0.7 146.64 0.98 150.67 3.49 152.8C5.22 154.27 7.86 154.29 12.87 154.69C14.92 154.86 16.88 154.88 18.02 156.3C18.75 157.21 18.34 157.89 18.99 158.9C20.33 160.99 23.39 161.88 26.43 162.21C32.17 162.83 41.6 163.85 49.45 159.58C50.67 158.91 53.05 157.47 55.93 157.91C57.66 158.18 57.65 158.84 60.28 159.71C63.32 160.72 65.98 160.72 67.83 160.73C74.17 160.78 75.72 158.77 80.03 158.74C85.01 158.7 87.46 161.79 92.14 163.46C108.64 169.34 132.42 168.09 139.59 160.57C140.55 159.56 140.74 158.77 141.94 157.85C147.72 153.44 155.69 154.48 160.61 155.19C170.38 156.59 185.14 158.61 199.28 155.62C199.28 155.62 212.64 152.89 215.25 146.52C216.59 143.24 215.9 140.48 215.9 140.48C215.64 139.43 215.22 138.63 214.91 138.12C214.68 138.63 211.83 144.81 205.07 145.98C199.9 146.88 196 144.23 195.22 143.67C188.78 145.4 179.24 146.86 169.2 143.45Z" fill="#CEEAF0" fill-opacity="1.000000" fill-rule="nonzero"/>
	<path id="path" d="M151.4 141.64C155.88 140.35 160.28 141.78 161.55 142.19C166.85 143.91 170.08 147.64 171.35 146.61C171.87 146.2 171.52 145.43 171.67 143.82C171.67 143.82 172 140.26 174.71 137.32C177.66 134.12 183 133.2 187.26 134.76C192.06 136.51 194.05 140.85 194.67 142.21C198.48 150.56 193.12 158.75 192.78 159.25C192.18 160.14 189.93 163.28 185.51 165.5C183.54 166.5 180.47 167.64 159.09 165.92C152.86 165.42 149.74 165.17 147.43 164.84C143.56 164.29 142.13 163.89 139.19 163.91C134.52 163.94 133.96 164.98 130.44 164.96C129.16 164.95 120.62 164.87 118.67 159.87C117.39 156.6 119.39 152.31 122.25 150.21C124.36 148.65 126.65 148.5 128.48 148.4C134.15 148.1 135.19 150.82 138.92 150.48C144.42 149.98 144.52 143.61 151.4 141.64Z" fill="#FFFFFF" fill-opacity="1.000000" fill-rule="nonzero"/>
	<path id="path" d="M59.49 147.51C59.12 149.74 55.07 150.55 54.7 150.63C51.82 151.18 50.32 150.09 46.25 149.09C39 147.3 37.36 147.48 36.11 147.98C34.49 148.63 34.57 149.26 32.66 149.89C31.87 150.15 28.96 151.06 25.86 149.7C24.95 149.3 22.17 148.09 21.54 145.34C21.13 143.54 21.91 142.02 22.1 141.66C22.96 140.01 24.38 139.3 25.35 138.82C25.95 138.52 27.28 137.88 29.12 137.92C30.39 137.95 31.4 138.29 32 138.55C32.25 137.69 32.72 136.49 33.69 135.35C36.57 131.99 42.65 130.63 46.83 133.62C50.41 136.17 50.72 140.55 50.76 141.23C52.04 141.32 54.58 141.68 56.86 143.51C57.82 144.27 59.76 145.84 59.49 147.51Z" fill="#FFFFFF" fill-opacity="1.000000" fill-rule="nonzero"/>
	<path id="path" d="M57.43 143.94C53.48 145.6 48.77 145.43 45.57 142.48C44.37 142.97 41.9 143.78 38.76 143.42C36.35 143.14 34.53 142.29 33.48 141.68C33.13 142.27 32.4 143.31 31.1 144.13C30.72 144.36 28.41 145.75 25.5 145C23.38 144.46 22.14 143.1 21.71 142.57C21.51 143.17 21.29 144.18 21.54 145.34C22.14 148.06 24.93 149.29 25.86 149.7C28.97 151.06 31.87 150.15 32.67 149.89C34.57 149.26 34.5 148.63 36.12 147.98C37.36 147.48 39 147.3 46.25 149.09C50.32 150.09 51.82 151.18 54.7 150.63C55.08 150.55 59.12 149.74 59.49 147.51C59.73 146.05 58.29 144.64 57.43 143.94Z" fill="#E9F4F6" fill-opacity="1.000000" fill-rule="nonzero"/>
	<path id="path" d="M195.22 143.67C194.84 144.62 190.94 153.99 180.67 156.56C171.84 158.77 164.89 154.31 163.77 153.56C158.54 159.05 146.53 161.37 140.55 156.52C139.79 156.98 134.24 160.25 127.86 157.95C123.47 156.36 121.2 153.05 120.5 151.91C119.94 152.31 118.91 153.15 118.33 154.57C117.31 157.07 118.46 159.46 118.67 159.88C121.09 164.7 128.94 164.93 129.93 164.95C130.15 164.96 130.32 164.96 130.44 164.96C133.96 164.98 134.52 163.94 139.19 163.91C142.13 163.89 143.56 164.29 147.43 164.84C149.74 165.17 152.86 165.42 159.09 165.92C180.47 167.64 183.54 166.5 185.51 165.51C189.8 163.35 192.23 160.06 192.78 159.26C193.43 158.31 196.82 153.17 195.9 146.59C195.73 145.36 195.45 144.36 195.22 143.67Z" fill="#CEEAF0" fill-opacity="1.000000" fill-rule="nonzero"/>
	<path id="path" d="M807.17 842.88C804.96 845.58 801.79 846.33 800.65 846.53C797.43 847.1 796.66 845.69 792.95 846.27C790.51 846.66 788.67 847.61 786.95 848.49C784.47 849.77 784.05 850.47 781.6 851.88C781.6 851.88 778.91 853.43 775.34 854.62C768.96 856.74 759.48 855.82 751.58 851.95C746.27 849.35 745.27 847.15 741.81 847.49C738.39 847.82 737.22 850.17 732.18 850.56C729.15 850.79 726.84 850.14 726.16 849.94C724.97 849.58 724.75 849.31 723.99 849.04C719.55 847.43 716.1 851.84 710.6 851.47C708.53 851.33 707.91 850.63 705.4 849.68C694.25 845.49 687.66 852.25 680.62 847.81C677.36 845.75 674.58 841.83 675.07 838.24C675.74 833.34 682.4 829.53 687.71 829.86C691.79 830.12 693.06 832.7 695.95 831.83C698.8 830.97 699.15 827.98 702.29 823.83C705.08 820.14 708.66 817.4 711.21 816.12C721.25 811.08 731.13 820.78 736.89 815.82C739.76 813.35 737.67 810.61 741.53 806.04C746.11 800.6 752.8 800.03 753.17 800C753.63 799.97 760.8 799.58 765.74 804.6C768.01 806.91 769.04 809.42 769.78 811.29C772.14 817.22 770.44 819.52 772.21 821.1C775.59 824.12 782.2 816.13 792.3 817.71C800.24 818.95 805.2 825.31 805.87 826.2C808.22 829.3 808.83 831.95 808.96 832.56C809.25 833.93 810.34 839.01 807.17 842.88Z" fill="#E9F4F6" fill-opacity="1.000000" fill-rule="nonzero"/>
	<path id="path" d="M766.14 817.34C768.78 820.5 770.23 823.64 771.04 825.81C776.19 823.05 780.73 821.81 783.75 821.2C789.1 820.12 794.04 819.12 799.27 821.42C803.54 823.29 806.07 826.52 807.3 828.38C806.77 826.65 804.34 819.42 797.16 815.66C792.68 813.31 788.26 813.3 786.77 813.33C782.8 813.43 779.92 814.43 779.26 814.69C776.76 815.64 774.92 816.92 773.75 817.87C773.34 815.39 772.18 810.61 768.42 806.1C766.95 804.35 762.91 799.49 755.87 798.3C754.39 798.05 749.2 797.25 744.2 799.97C740.02 802.24 737.66 805.54 736.76 806.9C736.07 807.95 735.58 808.89 735.26 809.59C733.15 808.3 726.56 804.65 717.84 805.73C716.24 805.93 705.68 807.41 699.34 816.85C696.27 821.42 695.45 825.97 695.19 828.48C693.93 827.79 691.52 826.68 688.34 826.62C687.4 826.6 681.9 826.48 678.22 830.46C674.57 834.42 674.94 839.99 675.08 840.02C675.17 840.04 675.28 837.47 677.22 835.01C679.03 832.7 681.41 831.81 682.11 831.56C685.74 830.26 688.94 831.24 690.18 831.64C693.64 832.76 695.73 834.97 696.61 836.02C697.39 834.21 698.76 831.45 700.98 828.43C703.98 824.37 709.24 817.24 717.04 816.55C720.85 816.22 724.29 817.51 727.31 818.65C730.3 819.77 732.63 821.14 734.23 822.22C736.53 818.94 740.56 814.39 746.86 811.68C749.52 810.54 752.14 809.45 755.47 809.93C760.55 810.67 763.82 814.57 766.14 817.34Z" fill="#FFFFFF" fill-opacity="1.000000" fill-rule="nonzero"/>
	<path id="path" d="M782.9 852.38C785.96 850.33 785.37 850.3 787.5 848.77C792.95 844.87 801.2 850.17 806.56 845.7C808.51 844.07 809.87 841.32 810.05 838.57C810.18 836.5 809.62 834.83 809.2 833.86C809.05 834.89 808.54 837.5 806.41 839.78C806.02 840.2 802.62 843.72 797.61 843.12C794.41 842.74 792.33 840.88 791.6 840.16C789.66 841.64 786.06 843.86 781.34 843.95C777.9 844.02 775.31 842.89 772.37 841.69C768.42 840.08 765.52 838.01 763.64 836.45C762.87 837.28 758.45 841.95 751.36 842.06C742.51 842.19 737.43 835.09 737.02 834.49C735.87 838.27 732.5 840.29 729.82 839.63C727.44 839.04 726.34 836.51 726.18 836.14C723.63 842.19 717.93 845.99 712.08 845.7C706.21 845.4 702.58 841.1 701.93 840.3C700.47 842.55 697.81 843.61 695.42 842.98C692.51 842.2 691.49 839.33 691.41 839.1C691.23 839.45 688.81 844.42 683.42 845.09C679.58 845.56 676.76 843.54 676.12 843.06C676.96 845.37 678.13 846.65 678.88 847.34C685.35 853.26 699.98 849.99 704.07 851.28C704.35 851.37 705.74 851.8 707.71 852.1C708.11 852.16 708.54 852.21 709.07 852.24C714.32 852.5 717.55 850.41 721.82 851.26C722.54 851.41 722.76 851.54 723.9 851.74C724.55 851.85 726.76 852.2 729.66 852.14C734.47 852.03 735.54 850.9 738.8 850.79C742.03 850.68 744.38 851.55 748.2 853.12C752.61 854.94 757.17 856.82 761.71 857.47C772.69 859.03 781.81 853.11 782.9 852.38Z" fill="#CEEAF0" fill-opacity="1.000000" fill-rule="nonzero"/>
	<path id="path" d="M253.27 413.54C246.97 418.06 240.26 413.22 234.27 417.67C231.79 419.51 231.51 421.41 230 423.83C222.25 436.27 195.78 440.31 177.22 432.49C171.95 430.27 169.13 425.63 163.58 426.12C158.77 426.55 157.11 429.84 150.04 430.31C145.78 430.6 142.55 429.67 141.6 429.37C140.26 428.96 139.32 428.52 138.58 428.09C135.4 426.24 135.3 425.68 134.15 425.5C131.32 425.05 130.46 429.68 124.98 432.07C123.95 432.52 120.65 433.91 117.61 432.57C117.19 432.38 115.13 431.48 114.88 429.86C114.63 428.28 116.24 426.94 115.97 426.67C115.67 426.36 113.51 428.05 112.49 428.77C108.04 431.94 100.63 434.31 97.21 431.61C95.99 430.65 94.98 428.82 95.07 427.08C95.18 425.15 96.57 424.19 96.19 423.63C95.6 422.78 92.21 424.74 87.73 425.72C84.84 426.35 81.09 427.17 77.78 425.85C72.99 423.94 69.94 417.91 70.1 412.37C70.35 404.08 77.79 399.67 78.87 399.03C83.07 396.54 87.33 396.47 88.37 396.47C89.72 396.48 91.9 396.45 94.47 397.39C96.59 398.17 98.11 399.29 98.44 398.91C98.75 398.56 97.38 397.47 96.86 395.29C96.7 394.65 96.22 392.72 97.14 391.15C98.64 388.58 102.56 388.66 103.04 388.67C106.33 388.77 108.31 390.81 109 390.11C109.52 389.57 108.33 388.41 108.36 386.15C108.37 385.79 108.44 383.42 110.11 381.72C111.78 380.03 114.34 379.64 116.28 380.07C118.9 380.64 119.74 382.55 120.84 382.1C122 381.63 121.39 379.38 122.34 376.25C122.62 375.31 123.91 370.85 127.59 369.15C131.81 367.21 136.09 369.47 136.71 369.81C140.97 372.16 142.06 376.63 144 376.2C145.19 375.94 144.98 374.32 146.76 373.32C148.59 372.29 151.08 372.72 152.71 373.61C156.2 375.51 156.03 379.6 157.54 379.68C159.44 379.77 159.64 373.33 163.67 368.01C169.37 360.48 179.31 359.73 180.06 359.68C180.71 359.64 190.77 359.18 197.64 366.28C201.17 369.93 202.82 374.51 203.22 375.7C205.18 381.5 204.15 385.03 206.1 385.9C208.31 386.89 210.28 382.61 216.64 380.68C218.32 380.17 222.49 378.9 226.95 380.62C232.33 382.7 234.62 387.78 234.81 388.22C236.54 392.21 235.09 394.38 236.84 395.61C239.18 397.26 242.19 393.61 247.97 394.6C248.99 394.78 251.39 395.22 253.64 397.04C254.05 397.36 258.32 400.92 257.9 406C257.53 410.4 253.87 413.11 253.27 413.54Z" fill="#F2F7F8" fill-opacity="1.000000" fill-rule="nonzero"/>
	<path id="path" d="M198.26 436.6C190.81 436.6 183.45 435.23 177.18 432.58C175.22 431.76 173.61 430.61 172.05 429.5C169.47 427.66 167.04 425.92 163.58 426.22C161.46 426.41 159.93 427.18 158.31 427.98C156.28 429 153.99 430.15 150.04 430.42C146.16 430.68 143.07 429.93 141.57 429.47C140.38 429.1 139.39 428.68 138.53 428.17C137.13 427.36 136.31 426.79 135.77 426.41C135.05 425.9 134.76 425.7 134.14 425.6C132.79 425.39 131.9 426.38 130.67 427.75C129.39 429.18 127.8 430.95 125.02 432.16C122.16 433.41 119.66 433.58 117.57 432.66C115.94 431.94 114.95 430.95 114.78 429.87C114.62 428.84 115.21 427.92 115.6 427.32C115.74 427.1 115.93 426.8 115.9 426.74C115.71 426.54 113.78 427.95 113.14 428.42C112.92 428.58 112.72 428.73 112.55 428.85C107.75 432.27 100.49 434.32 97.14 431.68C96.03 430.81 94.87 428.99 94.97 427.07C95.03 426 95.48 425.22 95.81 424.65C96.06 424.2 96.24 423.88 96.1 423.68C95.81 423.26 94.47 423.72 92.76 424.32C91.38 424.8 89.66 425.4 87.75 425.81C84.78 426.46 81.08 427.27 77.74 425.94C73.15 424.11 69.82 418.28 70 412.36C70.24 404.39 77.12 399.95 78.82 398.94C87.79 393.63 97.6 398.45 98.36 398.85C96.48 396.57 95.94 393.55 97.05 391.1C98.57 387.77 102.85 386.1 105.62 387.34C106.49 387.74 107.09 388.37 107.47 388.89C107.25 387.76 106.58 383.69 109.02 380.22C109.58 379.43 110.63 377.98 112.59 377.27C112.73 377.22 116.21 376.03 118.94 378.2C120.01 379.05 120.55 380.09 120.8 380.68C119.92 375 122.92 369.5 127.92 367.36C133.11 365.13 139.29 367.02 142.17 371.08C143.46 372.89 143.86 374.81 143.98 376.1C144.15 375.44 144.63 373.89 146.05 372.63C147.8 371.06 150.32 370.54 152.55 371.23C155.25 372.07 156.42 374.35 156.73 374.95C157.76 376.94 157.64 378.82 157.55 379.58C157.67 377.86 158.06 375.27 159.37 372.47C163.04 364.61 171.74 359.9 180.06 359.58C181.26 359.53 191.01 359.28 197.72 366.21C201.06 369.67 202.75 373.97 203.32 375.67C204.2 378.27 204.47 380.38 204.69 382.07C204.96 384.11 205.12 385.35 206.15 385.81C207.17 386.27 208.16 385.52 209.65 384.38C211.21 383.19 213.35 381.57 216.61 380.58C218.38 380.05 222.5 378.8 226.99 380.53C232.36 382.6 234.66 387.61 234.91 388.18C235.75 390.13 235.84 391.63 235.92 392.84C235.99 394.09 236.04 394.92 236.9 395.53C237.97 396.28 239.18 395.89 240.84 395.33C242.67 394.73 244.94 393.98 247.99 394.5C248.92 394.66 251.39 395.09 253.71 396.96C254.19 397.35 258.43 400.92 258 406.01C257.65 410.22 254.34 412.9 253.33 413.62C250.14 415.91 246.82 415.82 243.62 415.73C240.36 415.64 237.28 415.55 234.33 417.75C232.62 419.02 231.97 420.31 231.22 421.81C230.89 422.46 230.55 423.14 230.09 423.88C226.4 429.8 218.23 434.16 207.68 435.85C204.57 436.35 201.41 436.6 198.26 436.6ZM164.38 425.99C165.28 425.98 166.92 425.59 172.17 429.33C173.72 430.44 175.32 431.58 177.26 432.4C186.14 436.14 197.22 437.33 207.65 435.66C218.14 433.98 226.26 429.64 229.92 423.77C230.37 423.05 230.71 422.37 231.04 421.72C231.8 420.2 232.46 418.89 234.21 417.59C237.22 415.35 240.48 415.44 243.62 415.53C246.8 415.62 250.08 415.71 253.21 413.46L253.33 413.62L253.21 413.46C254.2 412.75 257.45 410.12 257.8 405.99C258.22 401.01 254.06 397.5 253.58 397.12C251.3 395.28 248.87 394.86 247.96 394.7C244.96 394.19 242.71 394.93 240.91 395.53C239.25 396.08 237.94 396.51 236.79 395.69C235.85 395.03 235.79 394.12 235.71 392.85C235.64 391.66 235.55 390.18 234.72 388.26C234.48 387.7 232.21 382.77 226.92 380.72C222.49 379.01 218.42 380.25 216.67 380.77C213.44 381.76 211.32 383.36 209.78 384.54C208.28 385.68 207.2 386.5 206.07 385.99C204.94 385.49 204.76 384.14 204.5 382.1C204.28 380.41 204 378.32 203.13 375.73C201.57 371.11 198.75 367.5 197.57 366.35C190.74 359.69 180.77 360.96 179.82 361.1C179.01 361.21 169.61 362.68 165.34 369.55C164.51 370.88 162.88 374.01 161.45 377.32C159.86 381.01 159.09 383.56 158.1 383.49C157.12 383.43 157.29 380.91 154.88 378.4C154.3 377.79 153.06 376.5 151.26 376.12C147.78 375.38 144.75 378.58 144.42 378.93C143.63 377.91 142.33 376.46 140.39 375.18C138.86 374.17 133.64 370.72 128.73 372.9C125.15 374.48 123.77 378.13 123.36 379.2C122.18 382.32 122.58 385.1 122.83 386.31C122.62 385.97 120.79 383.12 117.39 382.85C116.59 382.78 114.79 382.79 113.21 383.93C111.19 385.4 110.74 387.87 110.36 389.93C110.16 391.02 110.11 391.95 110.11 392.61C109.47 392.23 108.46 391.74 107.14 391.54C106.22 391.4 103.41 390.97 101.64 392.75C99.82 394.57 100.35 397.52 100.43 397.98C100.98 401.03 103.34 402.61 102.98 403.07C102.58 403.58 99.81 401.55 96.81 400.39C92.1 398.58 85.95 398.6 80.85 401.19C79.15 402.06 72.88 405.25 71.73 412.06C70.82 417.44 73.34 423.78 77.82 425.75C81.87 427.54 87.44 425.68 87.71 425.62C89.61 425.2 91.32 424.61 92.7 424.13C94.69 423.43 95.89 423.01 96.27 423.57C96.48 423.88 96.27 424.24 95.98 424.75C95.67 425.3 95.23 426.06 95.18 427.08C95.08 428.93 96.19 430.68 97.27 431.53C100.54 434.11 107.69 432.06 112.43 428.69C112.6 428.57 112.81 428.42 113.03 428.26C114.86 426.91 115.78 426.32 116.05 426.6C116.2 426.76 116.04 427.01 115.77 427.43C115.4 428.01 114.83 428.89 114.98 429.84C115.14 430.85 116.09 431.78 117.65 432.47C119.68 433.37 122.14 433.2 124.94 431.98C127.68 430.78 129.25 429.03 130.52 427.62C131.74 426.25 132.71 425.17 134.17 425.4C134.84 425.51 135.16 425.74 135.88 426.24C136.46 426.64 137.24 427.19 138.63 428C139.48 428.49 140.46 428.91 141.63 429.27C143.11 429.74 146.18 430.47 150.03 430.21C151.65 430.1 152.99 429.84 154.15 429.5C155.89 428.99 156.58 428.51 158.23 427.8C160.77 426.72 162.46 425.99 164.38 425.99Z" fill="#FFFFFF" fill-opacity="1.000000" fill-rule="nonzero"/>
	<path id="path" d="M121.39 414.97C115.64 416.82 111.78 410.83 100.89 408.39C92.08 406.42 86.15 408.44 84.87 408.9C82.3 409.83 76.1 412.07 75.15 417.17C74.72 419.47 75.41 422.14 77.03 423.91C80.69 427.91 88.35 426.13 89.26 425.91C92.06 425.22 94.03 423.96 94.67 424.71C95.33 425.48 93.51 427.18 93.63 429.67C93.76 432.35 96.09 434.25 97.2 435.17C102.55 439.58 113.88 439.48 119.97 439.3C136.68 438.81 145.44 438.45 156.07 433.31C159.42 431.69 162.04 430.04 163.77 428.85C167.73 431.18 172.45 433.41 177.93 435.09C182.41 436.46 199.66 441.75 217.09 434.84C224.42 431.93 223.01 430.35 230.15 428C239.59 424.89 245.96 426.38 253.28 420.99C255.28 419.52 256.84 417.91 257.82 415.7C257.95 415.42 260.48 409.5 257.26 404.7C254.57 400.7 249.61 400.08 248.88 400C239.98 399.02 236.19 408.35 226.25 408.9C221.81 409.14 218.07 407.53 215.57 406.1C213.65 408.2 198.69 424.08 178.04 421.59C170.6 420.69 164.85 417.7 161.15 415.26C159.2 416.33 156.36 417.71 152.76 418.81C149.35 419.86 145.42 421.07 141.57 420.6C133.44 419.59 128.53 411.38 127.4 409.38C126.4 411.2 124.52 413.96 121.39 414.97Z" fill="#CEEAF0" fill-opacity="1.000000" fill-rule="nonzero"/>
	<path id="path" d="M309.3 411.88C298.72 420.83 278.08 418.13 263.48 411.76C259.02 409.81 255.64 407.75 253.7 406.48C255.4 406.61 256.58 406.41 256.95 405.72C257.91 403.94 253.57 398.72 248.31 396.76C243.36 394.92 238.73 396.38 236.89 397.07C236.48 395.33 235.3 391.31 231.69 387.85C230.91 387.1 225.98 382.53 219.1 382.8C215.57 382.94 212.94 384.31 209.04 386.34C206.34 387.74 204.27 389.2 202.89 390.25C200.74 388.83 197.13 386.81 192.26 385.78C189.93 385.29 182.31 383.79 174.14 387.53C172.32 388.36 166.69 391.21 162.6 397.26C158.78 402.9 159 407.41 156.37 407.85C153.66 408.3 152.8 403.66 147.41 401.63C141.98 399.57 136.54 401.92 135.54 402.35C128.99 405.17 126.84 411.11 126.14 410.71C125.25 410.18 127.15 399.46 135.61 395.1C136.35 394.72 143.08 391.38 149.67 394.46C151.48 395.31 152.79 396.41 153.64 397.25C153.27 396.52 152.76 395.22 152.9 393.62C153.16 390.45 155.84 387.61 159.08 387.01C162.11 386.45 164.49 388.06 165.03 388.44C164.65 387.63 164.13 386.18 164.4 384.49C164.97 380.98 168.68 378.18 172.32 378.4C174.57 378.54 176.18 379.8 176.88 380.43C176.88 379.14 177.07 376.88 178.37 374.58C180.85 370.23 186.27 367.68 191.43 368.6C196.74 369.53 199.53 373.73 200.04 374.53C200.34 373.92 201.14 372.48 202.8 371.65C205.36 370.38 207.95 371.58 208.75 371.95C212.35 373.61 213.41 377.38 213.58 378.01C214.17 375.55 215.66 370.78 219.7 366.34C221.39 364.49 226.95 358.57 236.1 358.02C236.74 357.98 246.81 357.51 253.68 364.61C256.51 367.54 257.9 370.81 259.26 374.03C260.96 378.05 261.75 381.64 262.14 384.23C263.2 382.75 265.52 379.93 269.47 378.13C270.02 377.88 278.72 374.08 285.24 378.64C288.28 380.77 289.67 383.9 290.85 386.55C292.16 389.5 292.66 392.15 292.88 393.94C294.68 393.22 298.14 392.13 302.42 392.67C304.34 392.92 307.11 393.27 309.68 395.37C309.94 395.58 314.35 399.3 313.93 404.33C313.61 408.17 310.7 410.7 309.3 411.88Z" fill="#FFFFFF" fill-opacity="1.000000" fill-rule="nonzero"/>
	<path id="path" d="M242.37 406.35C247.29 404.71 252.26 406.08 253.7 406.48C259.68 408.14 263.45 412.13 264.82 410.93C265.37 410.44 264.95 409.6 265.04 407.8C265.04 407.8 265.23 403.82 268.11 400.42C271.24 396.72 277.13 395.44 281.95 396.96C287.38 398.67 289.79 403.41 290.55 404.89C295.2 414 289.63 423.38 289.28 423.95C288.65 424.97 286.3 428.57 281.5 431.26C279.35 432.47 275.99 433.88 252.11 433.01C245.15 432.75 241.67 432.63 239.08 432.37C234.74 431.95 233.13 431.57 229.87 431.74C224.67 432 224.09 433.18 220.18 433.33C218.76 433.38 209.24 433.71 206.83 428.24C205.25 424.66 207.27 419.79 210.35 417.31C212.62 415.48 215.16 415.19 217.2 415C223.49 414.38 224.78 417.36 228.91 416.81C235.01 415.98 234.82 408.88 242.37 406.35Z" fill="#CEEAF0" fill-opacity="1.000000" fill-rule="nonzero"/>
	<path id="path" d="M219.05 433.41C215.35 433.41 208.75 432.75 206.77 428.27C205.13 424.55 207.33 419.66 210.31 417.26C212.64 415.37 215.27 415.12 217.19 414.93C220.63 414.6 222.58 415.33 224.3 415.97C225.77 416.52 227.03 416.99 228.9 416.74C231.9 416.34 233.34 414.43 235.01 412.23C236.66 410.05 238.53 407.57 242.35 406.29C245.63 405.19 249.45 405.24 253.71 406.42C256.61 407.22 258.96 408.55 260.84 409.62C262.73 410.69 264.1 411.47 264.77 410.88C265.1 410.6 265.06 410.17 265.01 409.47C264.98 409.03 264.94 408.48 264.97 407.8C264.98 407.76 265.2 403.76 268.06 400.38C271.1 396.78 276.95 395.31 281.97 396.9C287.42 398.62 289.82 403.32 290.61 404.86C295.32 414.1 289.58 423.59 289.33 423.99C288.29 425.68 285.89 428.88 281.53 431.32C279.02 432.72 274.89 433.91 252.1 433.07C245.15 432.82 241.67 432.69 239.07 432.44C237.92 432.32 236.97 432.22 236.12 432.12C233.8 431.85 232.27 431.68 229.87 431.8C227.14 431.94 225.65 432.34 224.35 432.69C223.16 433.02 222.04 433.32 220.18 433.39C219.85 433.4 219.47 433.41 219.05 433.41ZM218.85 414.98C218.34 414.98 217.79 415 217.2 415.06C215.3 415.24 212.69 415.5 210.39 417.36C207.45 419.73 205.28 424.55 206.89 428.22C209.06 433.13 216.9 433.38 220.17 433.26C222.02 433.19 223.13 432.89 224.32 432.57C225.63 432.22 227.12 431.81 229.86 431.67C232.27 431.55 233.81 431.73 236.14 431.99C236.98 432.09 237.94 432.2 239.09 432.31C241.67 432.56 245.16 432.69 252.1 432.94C273.31 433.72 278.37 432.65 280.57 431.67C280.91 431.51 281.14 431.39 281.47 431.2C288.01 427.5 292.29 418.09 289.55 410.15C289.39 409.69 286.36 401.3 279.51 400.52C276.38 400.17 272.99 401.46 270.79 403.65C267.01 407.41 268.17 412.39 265.35 413.36C263.84 413.89 262.79 412.69 259.76 411.14C258.39 410.45 248.16 405.38 241.16 408.84C239.85 409.48 237.72 410.89 235.81 412.87C233.79 414.96 233 416.66 230.79 417.23C229.36 417.6 227.91 417.36 227.66 417.31C226.71 417.15 226.65 416.95 224.26 416.09C222.24 415.37 221.49 415.23 221.15 415.17C220.47 415.05 219.71 414.98 218.85 414.98Z" fill="#FFFFFF" fill-opacity="1.000000" fill-rule="nonzero"/>
</svg>
