<svg width="36.000000" height="36.000000" viewBox="0 0 36 36" fill="none" xmlns="http://www.w3.org/2000/svg" xmlns:xlink="http://www.w3.org/1999/xlink">
	<defs>
		<clipPath id="clip17_912">
			<rect id="chart" width="36.000000" height="36.000000" fill="white" fill-opacity="0"/>
		</clipPath>
	</defs>
	<g clip-path="url(#clip17_912)">
		<path id="path" d="M6.00641 16.5973C6.27991 14.304 7.2179 12.1407 8.7049 10.3737C8.86945 10.1753 9.07361 10.0134 9.30426 9.89844C9.53491 9.78333 9.78705 9.71777 10.0446 9.70581C10.3021 9.69385 10.5592 9.73572 10.7996 9.82874C11.0399 9.92188 11.2582 10.0641 11.4404 10.2463L14.6437 13.5178C14.9522 13.8257 15.1412 14.233 15.177 14.6674C15.2129 15.1017 15.0932 15.5345 14.8394 15.8888C14.647 16.1615 14.5022 16.465 14.411 16.7859C14.382 16.8806 14.3234 16.9636 14.2438 17.0226C14.1642 17.0815 14.0678 17.1134 13.9688 17.1135L6.46716 17.1135C6.40179 17.1136 6.33716 17.0999 6.27747 17.0732C6.21777 17.0466 6.16443 17.0077 6.12091 16.9587C6.07739 16.91 6.04468 16.8527 6.02496 16.7903C6.00519 16.7279 5.9989 16.6622 6.00641 16.5973ZM19.0463 6.00696C18.7904 5.98474 18.5327 6.01587 18.2896 6.09839C18.0464 6.18103 17.8231 6.31335 17.6338 6.48682C17.4444 6.6604 17.2933 6.87134 17.1898 7.10645C17.0865 7.34143 17.0331 7.59546 17.0331 7.85229L17.0331 12.5605C17.0298 12.9973 17.1826 13.421 17.4637 13.7555C17.7448 14.0898 18.1361 14.3131 18.567 14.385C19.3784 14.5188 20.1223 14.9188 20.6812 15.5221C21.2402 16.1254 21.5826 16.8976 21.6544 17.7168C21.7261 18.5361 21.5232 19.356 21.0776 20.0471C20.632 20.7384 19.9691 21.2618 19.1933 21.5347C19.103 21.5679 19.0251 21.6279 18.97 21.7068C18.9149 21.7856 18.8853 21.8795 18.8853 21.9757L18.8853 29.5271C18.8849 29.5927 18.8984 29.6576 18.9249 29.7175C18.9514 29.7775 18.9905 29.8311 19.0392 29.8749C19.0881 29.9187 19.1456 29.9517 19.2081 29.9714C19.2705 29.9913 19.3365 29.9977 19.4017 29.9901C22.2911 29.6335 24.9543 28.2452 26.9014 26.0809C28.8486 23.9166 29.9485 21.1218 29.9988 18.2111C30.0857 11.9261 25.2745 6.56494 19.0463 6.00696ZM16.7147 21.5311C16.197 21.3466 15.7269 21.0491 15.3385 20.6602C14.95 20.2712 14.653 19.8008 14.4689 19.283C14.4373 19.1912 14.3781 19.1113 14.2993 19.0546C14.2205 18.9978 14.1261 18.9667 14.029 18.9658L6.466 18.9658C6.40057 18.9653 6.33575 18.9789 6.27588 19.0052C6.216 19.0317 6.16241 19.0706 6.11865 19.1193C6.07495 19.168 6.04199 19.2253 6.02203 19.2877C6.00208 19.35 5.99561 19.4159 6.00293 19.481C6.32721 22.1567 7.53918 24.6466 9.44513 26.5526C11.3511 28.4586 13.8409 29.6705 16.5168 29.9948C16.5818 30.0022 16.6477 29.9956 16.71 29.9757C16.7724 29.9558 16.8298 29.9229 16.8784 29.879C16.9272 29.8353 16.9659 29.7816 16.9924 29.7218C17.0189 29.662 17.0324 29.5972 17.0319 29.5317L17.0319 21.9757C17.0322 21.8778 17.0016 21.7822 16.9448 21.7025C16.8878 21.6228 16.8075 21.5629 16.7147 21.5311Z" fill="currentColor" fill-opacity="1.000000" fill-rule="nonzero"/>
	</g>
</svg>
