<svg width="36.000000" height="36.000000" viewBox="0 0 36 36" fill="none" xmlns="http://www.w3.org/2000/svg" xmlns:xlink="http://www.w3.org/1999/xlink">
	<defs>
		<clipPath id="clip17_917">
			<rect id="forum" width="36.000000" height="36.000000" fill="white" fill-opacity="0"/>
		</clipPath>
	</defs>
	<g clip-path="url(#clip17_917)">
		<path id="path" d="M29.1196 24.4677C29.7241 23.239 30.0255 21.8833 29.9983 20.514C29.9712 19.145 29.6165 17.8022 28.9637 16.5984C28.311 15.3947 27.3794 14.3646 26.2468 13.5948C25.1143 12.8251 23.8137 12.3378 22.4542 12.174C22.0015 11.1254 21.3438 10.1779 20.5198 9.38708C19.6957 8.59631 18.7219 7.97815 17.6557 7.56897C16.5894 7.15979 15.452 6.9679 14.3105 7.00439C13.169 7.04089 12.0463 7.30518 11.0084 7.78174C9.97046 8.2583 9.03821 8.93738 8.26642 9.7793C7.49463 10.6211 6.89886 11.6088 6.51416 12.6841C6.12939 13.7594 5.9635 14.9009 6.02606 16.0413C6.08862 17.1815 6.37848 18.298 6.87854 19.3247L6.05786 22.1984C5.99402 22.4215 5.98285 22.6565 6.02521 22.8848C6.06757 23.1129 6.16235 23.3282 6.302 23.5135C6.44171 23.699 6.6225 23.8494 6.8302 23.9531C7.0379 24.0566 7.26678 24.1107 7.4989 24.111C7.63812 24.1113 7.77667 24.0918 7.91034 24.0531L10.784 23.2323C11.6508 23.6608 12.5847 23.9374 13.5451 24.0498C14.0023 25.1206 14.6729 26.0872 15.5159 26.8903C16.3589 27.6934 17.3568 28.3163 18.4485 28.7211C19.5403 29.1259 20.7031 29.3038 21.866 29.2445C23.0288 29.1851 24.1673 28.8893 25.212 28.3752L28.0857 29.196C28.3427 29.2693 28.6147 29.2725 28.8735 29.2053C29.1323 29.1382 29.3683 29.0031 29.5573 28.814C29.7463 28.625 29.8814 28.389 29.9486 28.1302C30.0157 27.8715 30.0126 27.5995 29.9393 27.3424L29.1196 24.4677ZM18.4277 20.6823C18.1734 20.6823 17.9249 20.6068 17.7133 20.4657C17.502 20.3243 17.3372 20.1235 17.2397 19.8885C17.1425 19.6537 17.1171 19.3951 17.1667 19.1458C17.2163 18.8962 17.3387 18.6672 17.5186 18.4874C17.6984 18.3076 17.9274 18.1852 18.1768 18.1356C18.4263 18.0859 18.6847 18.1113 18.9197 18.2086C19.1547 18.306 19.3555 18.4708 19.4968 18.6823C19.638 18.8937 19.7134 19.1423 19.7134 19.3966C19.7134 19.7375 19.578 20.0646 19.3368 20.3057C19.0957 20.5469 18.7687 20.6823 18.4277 20.6823ZM12.8561 20.6823C12.8565 21.1963 12.9035 21.7091 12.9965 22.2145C12.3982 22.0754 11.8215 21.8561 11.2822 21.5619C11.0856 21.4546 10.8549 21.4285 10.6393 21.4891L7.80963 22.298L8.61859 19.4684C8.6792 19.2528 8.65308 19.022 8.54572 18.8254C7.66138 17.2355 7.44495 15.3593 7.94397 13.6096C8.44299 11.86 9.61664 10.3802 11.2067 9.49585C12.7967 8.61157 14.6729 8.39514 16.4225 8.89417C18.1722 9.39319 19.6519 10.5668 20.5363 12.1567C18.4298 12.3799 16.4802 13.374 15.0625 14.9479C13.6447 16.5216 12.8589 18.5641 12.8561 20.6823ZM24.4278 20.6823C24.1735 20.6823 23.9249 20.6068 23.7134 20.4657C23.502 20.3243 23.3373 20.1235 23.2399 19.8885C23.1426 19.6537 23.1172 19.3951 23.1668 19.1458C23.2164 18.8962 23.3387 18.6672 23.5187 18.4874C23.6984 18.3076 23.9275 18.1852 24.1769 18.1356C24.4264 18.0859 24.6848 18.1113 24.9198 18.2086C25.1547 18.306 25.3555 18.4708 25.4968 18.6823C25.6381 18.8937 25.7135 19.1423 25.7135 19.3966C25.7135 19.7375 25.5781 20.0646 25.3369 20.3057C25.0958 20.5469 24.7688 20.6823 24.4278 20.6823Z" fill="currentColor" fill-opacity="1.000000" fill-rule="nonzero"/>
	</g>
</svg>
