<svg width="36.000000" height="36.000000" viewBox="0 0 36 36" fill="none" xmlns="http://www.w3.org/2000/svg" xmlns:xlink="http://www.w3.org/1999/xlink">
	<defs>
		<clipPath id="clip17_914">
			<rect id="home" width="36.000000" height="36.000000" fill="white" fill-opacity="0"/>
		</clipPath>
	</defs>
	<g clip-path="url(#clip17_914)">
		<path id="path" d="M30 17.4417L30 28.9978C30 29.5282 29.7892 30.037 29.4142 30.4121C29.0391 30.7871 28.5303 30.9978 28 30.9978L23 30.9978C22.4696 30.9978 21.9609 30.7871 21.5858 30.4121C21.2108 30.037 21 29.5282 21 28.9978L21 23.9978C21 23.7327 20.8946 23.4783 20.7071 23.2908C20.5196 23.1033 20.2653 22.9978 20 22.9978L16 22.9978C15.7347 22.9978 15.4803 23.1033 15.2928 23.2908C15.1053 23.4783 15 23.7327 15 23.9978L15 28.9978C15 29.5282 14.7892 30.037 14.4142 30.4121C14.0391 30.7871 13.5305 30.9978 13 30.9978L8 30.9978C7.46954 30.9978 6.96088 30.7871 6.58582 30.4121C6.21069 30.037 6 29.5282 6 28.9978L6 17.4417C5.99994 17.1649 6.05737 16.891 6.16864 16.6375C6.27985 16.3842 6.4425 16.1565 6.64624 15.9691L16.6462 6.53418L16.66 6.52039C17.0281 6.18555 17.508 6 18.0056 6C18.5032 6 18.9831 6.18555 19.3513 6.52039C19.3555 6.52527 19.3601 6.52991 19.365 6.53418L29.365 15.9691C29.5667 16.1575 29.7272 16.3855 29.8365 16.639C29.9459 16.8923 30.0015 17.1656 30 17.4417Z" fill="currentColor" fill-opacity="1.000000" fill-rule="nonzero"/>
	</g>
</svg>
