<svg width="36.000000" height="36.000000" viewBox="0 0 36 36" fill="none" xmlns="http://www.w3.org/2000/svg" xmlns:xlink="http://www.w3.org/1999/xlink">
	<defs>
		<clipPath id="clip17_919">
			<rect id="play" width="36.000000" height="36.000000" fill="white" fill-opacity="0"/>
		</clipPath>
	</defs>
	<g clip-path="url(#clip17_919)">
		<path id="path" d="M30 18.1825C30.001 18.5529 29.9059 18.9172 29.7242 19.2401C29.5428 19.5629 29.2807 19.8331 28.9636 20.0248L9.31635 32.0438C8.98511 32.2467 8.60571 32.3574 8.21741 32.3645C7.82904 32.3718 7.4458 32.2753 7.1073 32.0847C6.77197 31.8972 6.49268 31.6238 6.29803 31.2926C6.10345 30.9614 6.00055 30.5844 6 30.2002L6 6.16479C6.00055 5.78064 6.10345 5.40356 6.29803 5.07227C6.49268 4.74109 6.77197 4.46765 7.1073 4.28027C7.4458 4.08984 7.82904 3.99316 8.21741 4.00037C8.60571 4.00757 8.98511 4.11829 9.31635 4.32117L28.9636 16.3402C29.2807 16.5317 29.5428 16.8021 29.7242 17.125C29.9059 17.4478 30.001 17.8121 30 18.1825Z" fill="currentColor" fill-opacity="1.000000" fill-rule="nonzero"/>
	</g>
</svg>
