<svg width="70.000000" height="70.000000" viewBox="0 0 70 70" fill="none" xmlns="http://www.w3.org/2000/svg">
	<defs>
		<clipPath id="clip214_599">
			<rect id="svg" width="70.000000" height="70.000000" fill="white" fill-opacity="0"/>
		</clipPath>
	</defs>
	<g clip-path="url(#clip214_599)">
		<path id="path" d="M65.62 35C65.62 35.74 65.43 36.47 65.07 37.12C64.7 37.76 64.18 38.31 63.54 38.69L24.15 62.79C23.48 63.2 22.72 63.42 21.94 63.43C21.16 63.45 20.39 63.25 19.72 62.87C19.04 62.5 18.48 61.95 18.09 61.28C17.7 60.62 17.5 59.86 17.5 59.09L17.5 10.9C17.5 10.13 17.7 9.37 18.09 8.71C18.48 8.04 19.04 7.49 19.72 7.12C20.39 6.74 21.16 6.54 21.94 6.56C22.72 6.57 23.48 6.79 24.15 7.2L63.54 31.3C64.18 31.68 64.7 32.23 65.07 32.87C65.43 33.52 65.62 34.25 65.62 35Z" fill="currentColor" fill-opacity="1.000000" fill-rule="nonzero"/>
	</g>
</svg>
