<svg width="36.000000" height="36.000000" viewBox="0 0 36 36" fill="none" xmlns="http://www.w3.org/2000/svg" xmlns:xlink="http://www.w3.org/1999/xlink">
	<defs>
		<clipPath id="clip17_915">
			<rect id="profile" width="36.000000" height="36.000000" fill="white" fill-opacity="0"/>
		</clipPath>
	</defs>
	<g clip-path="url(#clip17_915)">
		<path id="path" d="M29.8769 29.6198C29.7959 29.76 29.6793 29.8766 29.5389 29.9578C29.3986 30.0387 29.2393 30.0813 29.0772 30.0813L6.92218 30.0813C6.76019 30.0812 6.60114 30.0383 6.46094 29.9573C6.32074 29.8761 6.20435 29.7596 6.12341 29.6193C6.04254 29.4791 5.99994 29.3199 6 29.158C6.00006 28.996 6.04272 28.8369 6.12366 28.6967C7.8811 25.6583 10.5893 23.4797 13.7499 22.447C12.1865 21.5164 10.9719 20.0983 10.2925 18.4104C9.61316 16.7227 9.50659 14.8585 9.9892 13.1042C10.4718 11.3501 11.517 9.80273 12.9641 8.69995C14.4112 7.59717 16.1804 7 17.9997 7C19.8191 7 21.5883 7.59717 23.0353 8.69995C24.4825 9.80273 25.5276 11.3501 26.0103 13.1042C26.4928 14.8585 26.3863 16.7227 25.7069 18.4104C25.0276 20.0983 23.8129 21.5164 22.2496 22.447C25.4101 23.4797 28.1183 25.6583 29.8757 28.6967C29.957 28.8368 29.9998 28.996 30 29.1581C30.0002 29.3201 29.9578 29.4792 29.8769 29.6198Z" fill="currentColor" fill-opacity="1.000000" fill-rule="nonzero"/>
	</g>
</svg>
