<svg width="55.000000" height="66.000000" viewBox="0 0 55 66" fill="none" xmlns="http://www.w3.org/2000/svg"
     xmlns:xlink="http://www.w3.org/1999/xlink">
    <defs/>
    <path id="path"
          d="M27.18 65.55C19.98 65.54 13.07 62.67 7.97 57.57C2.87 52.48 0 45.57 0 38.36C0 37.61 0.29 36.9 0.82 36.37C1.35 35.84 2.06 35.55 2.81 35.55C3.55 35.55 4.27 35.84 4.8 36.37C5.32 36.9 5.62 37.61 5.62 38.36C5.62 42.62 6.88 46.79 9.25 50.34C11.62 53.88 14.99 56.65 18.93 58.28C22.87 59.91 27.21 60.34 31.39 59.51C35.57 58.68 39.41 56.62 42.43 53.61C45.45 50.59 47.5 46.75 48.33 42.57C49.16 38.38 48.74 34.05 47.1 30.11C45.47 26.17 42.71 22.8 39.16 20.43C35.62 18.06 31.45 16.8 27.18 16.8L17.81 16.8C17.06 16.8 16.35 16.5 15.82 15.97C15.29 15.45 15 14.73 15 13.98C15 13.24 15.29 12.52 15.82 12C16.35 11.47 17.06 11.17 17.81 11.17L27.18 11.17C34.39 11.17 41.31 14.04 46.41 19.13C51.51 24.23 54.37 31.15 54.37 38.36C54.37 45.57 51.51 52.49 46.41 57.58C41.31 62.68 34.39 65.55 27.18 65.55Z"
          fill="#FC7F61" fill-opacity="1.000000" fill-rule="nonzero"/>
    <path id="path"
          d="M27.18 28.05C26.81 28.05 26.44 27.98 26.1 27.84C25.76 27.69 25.45 27.49 25.19 27.22L13.94 15.97C13.42 15.45 13.12 14.73 13.12 13.99C13.12 13.24 13.42 12.53 13.94 12L25.19 0.75C25.45 0.47 25.76 0.25 26.11 0.1C26.45 -0.06 26.82 -0.14 27.2 -0.15C27.58 -0.15 27.95 -0.08 28.3 0.06C28.65 0.2 28.97 0.41 29.24 0.68C29.51 0.94 29.72 1.26 29.86 1.61C30 1.96 30.07 2.34 30.06 2.71C30.06 3.09 29.97 3.46 29.82 3.81C29.67 4.15 29.44 4.46 29.17 4.72L19.9 13.99L29.17 23.25C29.69 23.78 29.99 24.49 29.99 25.24C29.99 25.98 29.69 26.7 29.17 27.22C28.91 27.49 28.6 27.69 28.26 27.84C27.92 27.98 27.55 28.05 27.18 28.05Z"
          fill="#FC7F61" fill-opacity="1.000000" fill-rule="nonzero"/>
</svg>
