<svg width="36.000000" height="36.000000" viewBox="0 0 36 36" fill="none" xmlns="http://www.w3.org/2000/svg" xmlns:xlink="http://www.w3.org/1999/xlink">
	<defs>
		<clipPath id="clip23_667">
			<rect id="Send" width="36.000000" height="36.000000" fill="white" fill-opacity="0"/>
		</clipPath>
	</defs>
	<g clip-path="url(#clip23_667)">
		<path id="path" d="M19.22 18.29L7.92 20.17C7.79 20.19 7.67 20.25 7.57 20.33C7.46 20.42 7.39 20.53 7.34 20.65L3.45 31.09C3.07 32.05 4.08 32.96 5 32.5L32 19C32.18 18.91 32.34 18.76 32.45 18.59C32.56 18.41 32.62 18.2 32.62 17.99C32.62 17.79 32.56 17.58 32.45 17.4C32.34 17.23 32.18 17.08 32 16.99L5 3.49C4.08 3.03 3.07 3.94 3.45 4.9L7.34 15.34C7.39 15.46 7.47 15.57 7.57 15.65C7.67 15.74 7.79 15.79 7.92 15.82L19.22 17.7C19.29 17.71 19.35 17.75 19.4 17.8C19.45 17.85 19.47 17.92 19.47 17.99C19.47 18.07 19.45 18.13 19.4 18.19C19.35 18.24 19.29 18.28 19.22 18.29Z" fill="currentColor" fill-opacity="1.000000" fill-rule="nonzero"/>
	</g>
</svg>
