<svg width="36.000000" height="36.000000" viewBox="0 0 36 36" fill="none" xmlns="http://www.w3.org/2000/svg" xmlns:xlink="http://www.w3.org/1999/xlink">
	<defs>
		<clipPath id="clip31_1152">
			<rect id="smile" width="36.000000" height="36.000000" fill="white" fill-opacity="0"/>
		</clipPath>
	</defs>
	<g clip-path="url(#clip31_1152)">
		<path id="path" d="M18 3C9.7 3 3 9.75 3 18C3 21.97 4.58 25.79 7.39 28.6C8.78 29.99 10.43 31.1 12.25 31.85C14.07 32.61 16.03 33 18 33C21.97 33 25.79 31.41 28.6 28.6C31.41 25.79 33 21.97 33 18C33 16.03 32.61 14.07 31.85 12.25C31.1 10.43 29.99 8.78 28.6 7.39C27.21 6 25.56 4.89 23.74 4.14C21.92 3.38 19.96 3 18 3ZM23.25 12C23.84 12 24.41 12.23 24.84 12.65C25.26 13.08 25.5 13.65 25.5 14.25C25.5 14.84 25.26 15.41 24.84 15.84C24.41 16.26 23.84 16.5 23.25 16.5C22.65 16.5 22.08 16.26 21.65 15.84C21.23 15.41 21 14.84 21 14.25C21 13.65 21.23 13.08 21.65 12.65C22.08 12.23 22.65 12 23.25 12ZM12.75 12C13.34 12 13.91 12.23 14.34 12.65C14.76 13.08 15 13.65 15 14.25C15 14.84 14.76 15.41 14.34 15.84C13.91 16.26 13.34 16.5 12.75 16.5C12.15 16.5 11.58 16.26 11.15 15.84C10.73 15.41 10.5 14.84 10.5 14.25C10.5 13.65 10.73 13.08 11.15 12.65C11.58 12.23 12.15 12 12.75 12ZM18 26.25C14.5 26.25 11.53 24.06 10.33 21L25.66 21C24.45 24.06 21.49 26.25 18 26.25Z" fill="currentColor" fill-opacity="1.000000" fill-rule="nonzero"/>
	</g>
</svg>
