<svg width="24.000000" height="24.000000" viewBox="0 0 24 24" fill="none" xmlns="http://www.w3.org/2000/svg">
	<defs>
		<clipPath id="clip31_908">
			<rect id="sort descend letter" width="24.000000" height="24.000000" fill="white" fill-opacity="0"/>
		</clipPath>
	</defs>
	<g clip-path="url(#clip31_908)">
		<path id="path" d="M3.75 3.75L3.75 5.25L7.92 5.25L3.95 9.2L3.75 9.44L3.75 11.25L9.75 11.25L9.75 9.75L5.57 9.75L9.53 5.79L9.74 5.55L9.74 3.75L3.75 3.75ZM16.5 3.75L16.5 17.76L14.55 15.82L13.5 16.87L16.7 20.1L17.25 20.62L17.79 20.1L21 16.87L19.94 15.82L18 17.76L18 3.75L16.5 3.75ZM6.14 12.75L5.97 13.24L4.52 17.25L3.79 19.24L3.75 19.35L3.75 20.25L5.25 20.25L5.25 19.61L5.55 18.75L7.94 18.75L8.25 19.61L8.25 20.25L9.75 20.25L9.75 19.35L9.7 19.24L9 17.29L7.52 13.24L7.36 12.75L6.14 12.75ZM6.75 15.49L7.38 17.25L6.11 17.25L6.75 15.49Z" fill="currentColor" fill-opacity="1.000000" fill-rule="nonzero"/>
	</g>
</svg>
