<svg width="24.000000" height="24.000000" viewBox="0 0 24 24" fill="none" xmlns="http://www.w3.org/2000/svg" xmlns:xlink="http://www.w3.org/1999/xlink">
	<desc>
			Created with Pixso.
	</desc>
	<defs>
		<clipPath id="clip128_1199">
			<rect id="sort ascend letter" width="24.000000" height="24.000000" fill="white" fill-opacity="0"/>
		</clipPath>
	</defs>
	<g clip-path="url(#clip128_1199)">
		<path id="path" d="M6.14 3.75L5.97 4.24L4.52 8.25L3.79 10.24L3.75 10.35L3.75 11.25L5.25 11.25L5.25 10.61L5.55 9.75L7.94 9.75L8.25 10.61L8.25 11.25L9.75 11.25L9.75 10.35L9.7 10.24L9 8.29L7.52 4.24L7.36 3.75L6.14 3.75ZM16.5 3.75L16.5 17.76L14.55 15.82L13.5 16.87L16.7 20.1L17.25 20.62L17.79 20.1L21 16.87L19.94 15.82L18 17.76L18 3.75L16.5 3.75ZM6.75 6.49L7.38 8.25L6.11 8.25L6.75 6.49ZM3.75 12.75L3.75 14.25L7.92 14.25L3.95 18.2L3.75 18.44L3.75 20.25L9.75 20.25L9.75 18.75L5.57 18.75L9.53 14.79L9.74 14.55L9.74 12.75L3.75 12.75Z" fill="#CCCCCC" fill-opacity="1.000000" fill-rule="nonzero"/>
	</g>
</svg>
