<svg width="24.000000" height="24.000000" viewBox="0 0 24 24" fill="none" xmlns="http://www.w3.org/2000/svg" xmlns:xlink="http://www.w3.org/1999/xlink">
	<desc>
			Created with Pixso.
	</desc>
	<defs>
		<clipPath id="clip128_1197">
			<rect id="sort ascend" width="24.000000" height="24.000000" fill="white" fill-opacity="0"/>
		</clipPath>
	</defs>
	<g clip-path="url(#clip128_1197)">
		<path id="path" d="M6.44 3.75L6.32 4.33C6.32 4.33 6.2 4.76 5.9 5.2C5.6 5.63 5.23 6 4.5 6L4.5 7.5C5.53 7.5 6.23 6.99 6.75 6.44L6.75 11.25L8.25 11.25L8.25 3.75L6.44 3.75ZM16.5 3.75L16.5 17.76L14.55 15.82L13.5 16.87L16.7 20.1L17.25 20.62L17.79 20.1L21 16.87L19.94 15.82L18 17.76L18 3.75L16.5 3.75ZM6.37 12.75C5.67 12.75 5.01 13.02 4.52 13.52C4.02 14.01 3.75 14.67 3.75 15.37L3.75 15.75L5.25 15.75L5.25 15.37C5.25 14.71 5.71 14.25 6.37 14.25L7.12 14.25C7.78 14.25 8.25 14.71 8.25 15.37C8.25 15.71 7.98 16.11 7.54 16.38C6.62 16.95 5.8 17.31 5.13 17.69C4.79 17.88 4.48 18.06 4.21 18.35C3.95 18.63 3.75 19.06 3.75 19.49L3.75 20.24L9.75 20.24L9.75 18.74L6.32 18.74C6.87 18.46 7.51 18.18 8.34 17.67C9.1 17.19 9.75 16.38 9.75 15.37C9.75 13.93 8.56 12.75 7.12 12.75L6.37 12.75Z" fill="currentColor" fill-opacity="1.000000" fill-rule="nonzero"/>
	</g>
</svg>
