<svg width="24.000000" height="24.000000" viewBox="0 0 24 24" fill="none" xmlns="http://www.w3.org/2000/svg">
	<defs>
		<clipPath id="clip128_1201">
			<rect id="sort descend" rx="2.000000" width="24.000000" height="24.000000" fill="white" fill-opacity="0"/>
		</clipPath>
	</defs>
	<g clip-path="url(#clip128_1201)">
		<path id="path" d="M6.37 3.75C5.67 3.75 5.01 4.02 4.52 4.52C4.02 5.01 3.75 5.67 3.75 6.37L3.75 6.75L5.25 6.75L5.25 6.37C5.25 5.71 5.71 5.25 6.37 5.25L7.12 5.25C7.78 5.25 8.25 5.71 8.25 6.37C8.25 6.71 7.98 7.11 7.54 7.38C6.62 7.95 5.8 8.31 5.13 8.69C4.79 8.88 4.48 9.06 4.21 9.35C3.95 9.63 3.75 10.06 3.75 10.49L3.75 11.24L9.75 11.24L9.75 10.49L9.75 9.74L6.32 9.74C6.87 9.46 7.51 9.18 8.34 8.67C9.1 8.19 9.75 7.38 9.75 6.37C9.75 4.93 8.56 3.75 7.12 3.75L6.37 3.75ZM16.5 3.75L16.5 17.76L14.55 15.82L13.5 16.87L16.7 20.1L17.25 20.62L17.79 20.1L21 16.87L19.94 15.82L18 17.76L18 3.75L16.5 3.75ZM6.44 12.75L6.32 13.33C6.32 13.33 6.2 13.76 5.9 14.2C5.6 14.63 5.23 15 4.5 15L4.5 16.5C5.53 16.5 6.24 15.99 6.75 15.44L6.75 20.25L8.25 20.25L8.25 12.75L6.44 12.75Z" fill="currentColor" fill-opacity="1.000000" fill-rule="nonzero"/>
	</g>
</svg>
