<svg width="36.000000" height="36.000000" viewBox="0 0 36 36" fill="none" xmlns="http://www.w3.org/2000/svg" xmlns:xlink="http://www.w3.org/1999/xlink">
	<defs>
		<clipPath id="clip35_1360">
			<rect id="sun" width="36.000000" height="36.000000" fill="white" fill-opacity="0"/>
		</clipPath>
	</defs>
	<g clip-path="url(#clip35_1360)">
		<path id="path" d="M27 18C27 20.387 26.0519 22.6761 24.3639 24.3639C22.6761 26.0519 20.387 27 18 27C15.613 27 13.3239 26.0519 11.636 24.3639C9.94824 22.6761 9 20.387 9 18C9 15.613 9.94824 13.3239 11.636 11.636C13.3239 9.94824 15.613 9 18 9C20.387 9 22.6761 9.94824 24.3639 11.636C26.0519 13.3239 27 15.613 27 18Z" fill="currentColor" fill-opacity="1.000000" fill-rule="nonzero"/>
		<path id="path" d="M18 1.875C18.2983 1.875 18.5846 1.99353 18.7954 2.20447C19.0065 2.41553 19.125 2.70166 19.125 3L19.125 4.5C19.125 4.79834 19.0065 5.08447 18.7954 5.29553C18.5846 5.50647 18.2983 5.625 18 5.625C17.7017 5.625 17.4154 5.50647 17.2046 5.29553C16.9935 5.08447 16.875 4.79834 16.875 4.5L16.875 3C16.875 2.70166 16.9935 2.41553 17.2046 2.20447C17.4154 1.99353 17.7017 1.875 18 1.875ZM6.59851 6.59851C6.80945 6.38782 7.09534 6.26953 7.39355 6.26953C7.69165 6.26953 7.97754 6.38782 8.18848 6.59851L8.77795 7.18652C8.98303 7.39856 9.09656 7.68274 9.09412 7.97766C9.09167 8.27271 8.97351 8.55493 8.76501 8.76355C8.55652 8.97229 8.27441 9.0907 7.97949 9.09338C7.68445 9.09607 7.40027 8.98279 7.18799 8.77795L6.59851 8.18848C6.38782 7.97754 6.26953 7.69165 6.26953 7.39355C6.26953 7.09534 6.38782 6.80945 6.59851 6.59851ZM29.4015 6.59851C29.6123 6.80945 29.7305 7.09534 29.7305 7.39355C29.7305 7.69165 29.6123 7.97754 29.4015 8.18848L28.812 8.77795C28.5988 8.97668 28.3167 9.08496 28.0253 9.07971C27.7338 9.07458 27.4557 8.95654 27.2496 8.75049C27.0435 8.54431 26.9254 8.26624 26.9202 7.97473C26.915 7.68335 27.0232 7.40125 27.222 7.18799L27.8115 6.59851C28.0225 6.38782 28.3083 6.26953 28.6064 6.26953C28.9045 6.26953 29.1906 6.38782 29.4015 6.59851ZM1.875 18C1.875 17.7017 1.99353 17.4154 2.20447 17.2046C2.41553 16.9935 2.70166 16.875 3 16.875L4.5 16.875C4.79834 16.875 5.08447 16.9935 5.29553 17.2046C5.50647 17.4154 5.625 17.7017 5.625 18C5.625 18.2983 5.50647 18.5846 5.29553 18.7954C5.08447 19.0065 4.79834 19.125 4.5 19.125L3 19.125C2.70166 19.125 2.41553 19.0065 2.20447 18.7954C1.99353 18.5846 1.875 18.2983 1.875 18ZM30.375 18C30.375 17.7017 30.4935 17.4154 30.7046 17.2046C30.9154 16.9935 31.2017 16.875 31.5 16.875L33 16.875C33.2983 16.875 33.5846 16.9935 33.7954 17.2046C34.0065 17.4154 34.125 17.7017 34.125 18C34.125 18.2983 34.0065 18.5846 33.7954 18.7954C33.5846 19.0065 33.2983 19.125 33 19.125L31.5 19.125C31.2017 19.125 30.9154 19.0065 30.7046 18.7954C30.4935 18.5846 30.375 18.2983 30.375 18ZM27.222 27.222C27.4329 27.0114 27.7188 26.8931 28.017 26.8931C28.3152 26.8931 28.6011 27.0114 28.812 27.222L29.4015 27.8115C29.5121 27.9146 29.6007 28.0387 29.6622 28.1768C29.7238 28.3147 29.7567 28.4637 29.7594 28.6147C29.7621 28.7657 29.7343 28.9158 29.6776 29.0559C29.6211 29.196 29.537 29.3232 29.4301 29.4301C29.3232 29.537 29.196 29.6211 29.0559 29.6776C28.9158 29.7343 28.7657 29.7621 28.6147 29.7594C28.4637 29.7567 28.3147 29.7238 28.1768 29.6622C28.0387 29.6007 27.9146 29.5121 27.8115 29.4015L27.222 28.812C27.0114 28.6011 26.8931 28.3152 26.8931 28.017C26.8931 27.7188 27.0114 27.4329 27.222 27.222ZM8.77795 27.222C8.98865 27.4329 9.10706 27.7188 9.10706 28.017C9.10706 28.3152 8.98865 28.6011 8.77795 28.812L8.18848 29.4015C8.08545 29.5121 7.9613 29.6007 7.82336 29.6622C7.6853 29.7238 7.53638 29.7567 7.38525 29.7594C7.23425 29.7621 7.08423 29.7343 6.94409 29.6776C6.80396 29.6211 6.67676 29.537 6.56995 29.4301C6.46313 29.3232 6.37891 29.196 6.32227 29.0559C6.26575 28.9158 6.23792 28.7657 6.2406 28.6147C6.24329 28.4637 6.27637 28.3147 6.33789 28.1768C6.39929 28.0387 6.48792 27.9146 6.59851 27.8115L7.18652 27.222C7.29102 27.1174 7.41504 27.0345 7.55151 26.9779C7.68811 26.9214 7.83447 26.8923 7.9823 26.8923C8.13 26.8923 8.27637 26.9214 8.41296 26.9779C8.54944 27.0345 8.67358 27.1174 8.77795 27.222ZM18 30.375C18.2983 30.375 18.5846 30.4935 18.7954 30.7046C19.0065 30.9154 19.125 31.2017 19.125 31.5L19.125 33C19.125 33.2983 19.0065 33.5846 18.7954 33.7954C18.5846 34.0065 18.2983 34.125 18 34.125C17.7017 34.125 17.4154 34.0065 17.2046 33.7954C16.9935 33.5846 16.875 33.2983 16.875 33L16.875 31.5C16.875 31.2017 16.9935 30.9154 17.2046 30.7046C17.4154 30.4935 17.7017 30.375 18 30.375Z" fill="currentColor" fill-opacity="1.000000" fill-rule="evenodd"/>
	</g>
</svg>
