<svg width="48.125000" height="56.877930" viewBox="0 0 48.125 56.8779" fill="none" xmlns="http://www.w3.org/2000/svg" xmlns:xlink="http://www.w3.org/1999/xlink">
	<desc>
			Created with Pixso.
	</desc>
	<defs/>
	<path id="path" d="M48.125 28.439C48.127 29.1816 47.9363 29.9121 47.5721 30.5596C47.2081 31.207 46.6826 31.749 46.0469 32.1328L6.65002 56.2339C5.98584 56.6406 5.22498 56.8628 4.44629 56.877C3.6676 56.8916 2.89917 56.6978 2.22034 56.3159C1.54797 55.9399 0.987915 55.3916 0.597656 54.7275C0.207397 54.063 0.00109863 53.3071 0 52.5371L0 4.34082C0.00109863 3.57031 0.207397 2.81445 0.597656 2.15039C0.987915 1.48584 1.54797 0.937988 2.22034 0.562012C2.89917 0.180176 3.6676 -0.0136719 4.44629 0.000976562C5.22498 0.0151367 5.98584 0.237305 6.65002 0.644043L46.0469 24.7446C46.6826 25.1289 47.2081 25.6709 47.5721 26.3184C47.9363 26.9653 48.127 27.6963 48.125 28.439Z" fill="#FC7F61" fill-opacity="1.000000" fill-rule="nonzero"/>
</svg>
